<svg width="22" height="22" viewBox="0 0 22 22" fill="none" xmlns="http://www.w3.org/2000/svg">
<path d="M16.2105 19.9389H2.31579V5.78942H10.4211V3.47363H2.31579C1.04211 3.47363 0 4.51574 0 5.78942V19.6842C0 20.9578 1.04211 21.9999 2.31579 21.9999H16.2105C17.4842 21.9999 18.5263 20.9578 18.5263 19.6842V11.5789H16.2105V19.9389Z" fill="#0FACFD"/>
<path d="M18.5261 0H16.2103V3.47368H12.7366C12.7482 3.48526 12.7366 5.78947 12.7366 5.78947H16.2103V9.25158C16.2219 9.26316 18.5261 9.25158 18.5261 9.25158V5.78947H21.9998V3.47368H18.5261V0ZM4.63135 8.10526H13.8945V10.4211H4.63135V8.10526ZM4.63135 11.5789V13.8947H13.8945V11.5789H10.4208H4.63135ZM4.63135 15.0526H13.8945V17.3684H4.63135V15.0526Z" fill="#0FACFD"/>
</svg>
