<svg width="24" height="24" viewBox="0 0 24 24" fill="none" xmlns="http://www.w3.org/2000/svg">
<path d="M3.65258 22.9993C4.01548 23.0084 4.37653 22.9448 4.71445 22.8123C5.05238 22.6799 5.36035 22.4811 5.62023 22.2279C5.88011 21.9747 6.08664 21.672 6.22765 21.3378C6.36867 21.0036 6.44131 20.6446 6.44131 20.2819C6.44131 19.9192 6.36867 19.5601 6.22765 19.2259C6.08664 18.8917 5.88011 18.5891 5.62023 18.3358C5.36035 18.0826 5.05238 17.8839 4.71445 17.7514C4.37653 17.6189 4.01548 17.5553 3.65258 17.5644C2.94303 17.5821 2.26851 17.8762 1.77294 18.3839C1.27738 18.8916 1 19.5727 1 20.2819C1 20.991 1.27738 21.6721 1.77294 22.1798C2.26851 22.6875 2.94303 22.9816 3.65258 22.9993ZM15.8947 20.281C16.2576 20.2901 16.6186 20.2265 16.9566 20.094C17.2945 19.9615 17.6025 19.7628 17.8623 19.5096C18.1222 19.2563 18.3287 18.9537 18.4698 18.6195C18.6108 18.2853 18.6834 17.9262 18.6834 17.5635C18.6834 17.2008 18.6108 16.8418 18.4698 16.5076C18.3287 16.1734 18.1222 15.8707 17.8623 15.6175C17.6025 15.3643 17.2945 15.1655 16.9566 15.0331C16.6186 14.9006 16.2576 14.837 15.8947 14.8461C15.1851 14.8638 14.5106 15.1579 14.015 15.6656C13.5195 16.1733 13.2421 16.8544 13.2421 17.5635C13.2421 18.2727 13.5195 18.9538 14.015 19.4615C14.5106 19.9692 15.1851 20.2633 15.8947 20.281Z" stroke="#0FACFD" stroke-width="2" stroke-linecap="round" stroke-linejoin="round"/>
<path d="M6.37305 20.2808V9.24753C6.37388 9.09845 6.42367 8.95376 6.51477 8.83568C6.60587 8.71761 6.73323 8.63267 6.87731 8.59391L9.02386 7.97943M6.37305 12.8067L13.2897 10.8867M18.6135 17.5642V15.1659M12.6338 6.84581C12.0375 6.74197 12.0375 5.88409 12.6338 5.78026C13.6929 5.59646 14.6731 5.10163 15.4496 4.35889C16.226 3.61616 16.7635 2.65918 16.9933 1.61001L17.0291 1.4449C17.1586 0.85426 18.0002 0.850855 18.1347 1.4398L18.1773 1.63214C18.4158 2.67666 18.958 3.62741 19.7359 4.36487C20.5137 5.10234 21.4923 5.59359 22.5488 5.77686C23.1502 5.88239 23.1502 6.74368 22.5488 6.84921C21.4923 7.03248 20.5137 7.52373 19.7359 8.2612C18.958 8.99866 18.4158 9.94941 18.1773 10.9939L18.1347 11.1846C17.9984 11.7752 17.1586 11.7701 17.0291 11.1812L16.9933 11.0161C16.7635 9.96689 16.226 9.00991 15.4496 8.26717C14.6731 7.52444 13.6929 7.02961 12.6338 6.84581Z" stroke="#0FACFD" stroke-width="2" stroke-linecap="round" stroke-linejoin="round"/>
</svg>
