<svg width="22" height="19" viewBox="0 0 22 19" fill="none" xmlns="http://www.w3.org/2000/svg">
<path d="M17.9474 7.125H22V9.5H19.6842V16.0312C19.6842 16.8625 19.4044 17.5651 18.8447 18.1391C18.2851 18.713 17.6 19 16.7895 19C15.9789 19 15.2939 18.713 14.7342 18.1391C14.1746 17.5651 13.8947 16.8625 13.8947 16.0312C13.8947 15.2 14.1746 14.4974 14.7342 13.9234C15.2939 13.3495 15.9789 13.0625 16.7895 13.0625C16.9439 13.0625 17.1175 13.0775 17.3105 13.1076C17.5035 13.1377 17.7158 13.2018 17.9474 13.3V7.125ZM0 19V15.675C0 14.9823 0.169053 14.3589 0.507158 13.8047C0.845263 13.2505 1.29375 12.825 1.85263 12.5281C3.04912 11.9146 4.26491 11.4546 5.5 11.1482C6.73509 10.8419 7.98947 10.6883 9.26316 10.6875C10.0737 10.6875 10.8796 10.752 11.6808 10.8811C12.4821 11.0101 13.2876 11.2029 14.0974 11.4594C13.7114 11.6969 13.364 11.9839 13.0553 12.3203C12.7465 12.6568 12.4763 13.0229 12.2447 13.4187C11.743 13.3 11.2462 13.2109 10.7545 13.1516C10.2628 13.0922 9.76568 13.0625 9.26316 13.0625C8.16316 13.0625 7.08246 13.201 6.02105 13.4781C4.95965 13.7552 3.91754 14.151 2.89474 14.6656C2.72105 14.7646 2.58133 14.9031 2.47558 15.0813C2.36982 15.2594 2.31656 15.4573 2.31579 15.675V16.625H11.6079C11.6465 17.0208 11.7383 17.4167 11.8835 17.8125C12.0286 18.2083 12.2262 18.6042 12.4763 19H0ZM9.26316 9.5C7.98947 9.5 6.89912 9.0349 5.99211 8.10469C5.08509 7.17448 4.63158 6.05625 4.63158 4.75C4.63158 3.44375 5.08509 2.32552 5.99211 1.39531C6.89912 0.465104 7.98947 0 9.26316 0C10.5368 0 11.6272 0.465104 12.5342 1.39531C13.4412 2.32552 13.8947 3.44375 13.8947 4.75C13.8947 6.05625 13.4412 7.17448 12.5342 8.10469C11.6272 9.0349 10.5368 9.5 9.26316 9.5ZM9.26316 7.125C9.9 7.125 10.4454 6.89265 10.8993 6.42794C11.3532 5.96323 11.5797 5.40392 11.5789 4.75C11.5782 4.09608 11.3516 3.53717 10.8993 3.07325C10.4469 2.60933 9.90154 2.37658 9.26316 2.375C8.62477 2.37342 8.07979 2.60617 7.62821 3.07325C7.17663 3.54033 6.94968 4.09925 6.94737 4.75C6.94505 5.40075 7.172 5.96006 7.62821 6.42794C8.08442 6.89581 8.6294 7.12817 9.26316 7.125Z" fill="#0FACFD"/>
</svg>
