<svg width="24" height="24" viewBox="0 0 24 24" fill="none" xmlns="http://www.w3.org/2000/svg">
<path d="M12 6.17647V10.0588M12 13.9412V13.9541M19.3333 1C20.3058 1 21.2384 1.40903 21.9261 2.13712C22.6137 2.8652 23 3.85269 23 4.88235V15.2353C23 16.265 22.6137 17.2525 21.9261 17.9805C21.2384 18.7086 20.3058 19.1176 19.3333 19.1176H13.2222L7.11111 23V19.1176H4.66667C3.69421 19.1176 2.76158 18.7086 2.07394 17.9805C1.38631 17.2525 1 16.265 1 15.2353V4.88235C1 3.85269 1.38631 2.8652 2.07394 2.13712C2.76158 1.40903 3.69421 1 4.66667 1H19.3333Z" stroke="#0FACFD" stroke-width="2" stroke-linecap="round" stroke-linejoin="round"/>
</svg>
