<svg width="22" height="22" viewBox="0 0 22 22" fill="none" xmlns="http://www.w3.org/2000/svg">
<path d="M15.8889 21.9999C14.1981 21.9999 12.7571 21.4635 11.5659 20.3906C10.3746 19.3178 9.77859 18.0209 9.77777 16.4999C9.77696 14.979 10.373 13.6821 11.5659 12.6093C12.7588 11.5364 14.1998 11 15.8889 11C17.578 11 19.0194 11.5364 20.2131 12.6093C21.4068 13.6821 22.0024 14.979 22 16.4999C21.9975 18.0209 21.4015 19.3181 20.2119 20.3917C19.0223 21.4653 17.5813 22.0014 15.8889 21.9999ZM9.77777 21.9999C6.94629 21.3583 4.60859 19.896 2.76467 17.6131C0.920741 15.3303 -0.000814275 12.7959 5.39851e-07 10.01V3.29999L9.77777 0L19.5555 3.29999V9.54247C19.0259 9.30413 18.4299 9.1208 17.7674 8.99247C17.105 8.86414 16.4788 8.79997 15.8889 8.79997C13.5259 8.79997 11.5093 9.55163 9.83889 11.055C8.16852 12.5583 7.33333 14.3733 7.33333 16.4999C7.33333 17.6366 7.57289 18.6633 8.052 19.5799C8.53111 20.4966 9.13692 21.2941 9.86944 21.9724C9.84907 21.9724 9.834 21.9772 9.82422 21.9867C9.81444 21.9963 9.79896 22.0007 9.77777 21.9999ZM15.2778 19.7999H16.5V17.0499H19.5555V15.9499H16.5V13.2H15.2778V15.9499H12.2222V17.0499H15.2778V19.7999Z" fill="#0FACFD"/>
</svg>
