<svg width="24" height="24" viewBox="0 0 24 24" fill="none" xmlns="http://www.w3.org/2000/svg">
<path opacity="0.16" fill-rule="evenodd" clip-rule="evenodd" d="M12 23C13.4445 23 14.8749 22.7155 16.2095 22.1627C17.5441 21.6099 18.7567 20.7996 19.7782 19.7782C20.7996 18.7567 21.6099 17.5441 22.1627 16.2095C22.7155 14.8749 23 13.4445 23 12C23 10.5555 22.7155 9.12506 22.1627 7.79048C21.6099 6.4559 20.7996 5.24327 19.7782 4.22183C18.7567 3.20038 17.5441 2.39013 16.2095 1.83733C14.8749 1.28452 13.4445 1 12 1C9.08262 1 6.28473 2.15893 4.22183 4.22183C2.15893 6.28473 1 9.08262 1 12C1 14.9174 2.15893 17.7153 4.22183 19.7782C6.28473 21.8411 9.08262 23 12 23ZM15.6667 8.33333L11.153 9.23656C10.6801 9.33132 10.2459 9.56384 9.90486 9.90486C9.56384 10.2459 9.33132 10.6801 9.23656 11.153L8.33333 15.6667L12.847 14.7634C13.3201 14.6689 13.7546 14.4365 14.0959 14.0954C14.4371 13.7544 14.6698 13.32 14.7647 12.847L15.6667 8.33333Z" fill="black"/>
<path d="M12 23C18.0751 23 23 18.0751 23 12C23 5.92487 18.0751 1 12 1C5.92487 1 1 5.92487 1 12C1 18.0751 5.92487 23 12 23Z" stroke="#959296" stroke-width="2" stroke-linecap="round" stroke-linejoin="round"/>
<path d="M11.1532 9.2366L15.6668 8.33337L14.7636 12.847C14.6691 13.3201 14.4366 13.7547 14.0956 14.0959C13.7546 14.4372 13.3202 14.6699 12.8472 14.7647L8.3335 15.6667L9.23672 11.153C9.33149 10.6802 9.56401 10.2459 9.90502 9.9049C10.246 9.56388 10.6803 9.33136 11.1532 9.2366Z" stroke="#959296" stroke-width="2" stroke-linecap="round" stroke-linejoin="round"/>
</svg>
