<svg width="24" height="24" viewBox="0 0 24 24" fill="none" xmlns="http://www.w3.org/2000/svg">
<path d="M3.65258 22.9992C4.01548 23.0083 4.37653 22.9447 4.71445 22.8122C5.05238 22.6797 5.36035 22.481 5.62023 22.2278C5.88011 21.9745 6.08664 21.6719 6.22765 21.3377C6.36867 21.0035 6.44131 20.6444 6.44131 20.2817C6.44131 19.919 6.36867 19.56 6.22765 19.2258C6.08664 18.8916 5.88011 18.5889 5.62023 18.3357C5.36035 18.0825 5.05238 17.8837 4.71445 17.7513C4.37653 17.6188 4.01548 17.5552 3.65258 17.5643C2.94303 17.582 2.26851 17.8761 1.77294 18.3838C1.27738 18.8915 1 19.5726 1 20.2817C1 20.9909 1.27738 21.672 1.77294 22.1797C2.26851 22.6874 2.94303 22.9815 3.65258 22.9992ZM15.8947 20.2809C16.2576 20.29 16.6186 20.2264 16.9566 20.0939C17.2945 19.9614 17.6025 19.7627 17.8623 19.5095C18.1222 19.2562 18.3287 18.9536 18.4698 18.6194C18.6108 18.2851 18.6834 17.9261 18.6834 17.5634C18.6834 17.2007 18.6108 16.8417 18.4698 16.5075C18.3287 16.1733 18.1222 15.8706 17.8623 15.6174C17.6025 15.3641 17.2945 15.1654 16.9566 15.0329C16.6186 14.9004 16.2576 14.8369 15.8947 14.8459C15.1851 14.8637 14.5106 15.1578 14.015 15.6655C13.5195 16.1732 13.2421 16.8543 13.2421 17.5634C13.2421 18.2726 13.5195 18.9537 14.015 19.4614C14.5106 19.9691 15.1851 20.2631 15.8947 20.2809Z" stroke="#959296" stroke-width="2" stroke-linecap="round" stroke-linejoin="round"/>
<path d="M6.37305 20.2808V9.24753C6.37388 9.09845 6.42367 8.95376 6.51477 8.83568C6.60587 8.71761 6.73323 8.63267 6.87731 8.59391L9.02386 7.97943M6.37305 12.8067L13.2897 10.8867M18.6135 17.5642V15.1659M12.6338 6.84581C12.0375 6.74197 12.0375 5.88409 12.6338 5.78026C13.6929 5.59646 14.6731 5.10163 15.4496 4.35889C16.226 3.61616 16.7635 2.65918 16.9933 1.61001L17.0291 1.4449C17.1586 0.85426 18.0002 0.850855 18.1347 1.4398L18.1773 1.63214C18.4158 2.67666 18.958 3.62741 19.7359 4.36487C20.5137 5.10234 21.4923 5.59359 22.5488 5.77686C23.1502 5.88239 23.1502 6.74368 22.5488 6.84921C21.4923 7.03248 20.5137 7.52373 19.7359 8.2612C18.958 8.99866 18.4158 9.94941 18.1773 10.9939L18.1347 11.1846C17.9984 11.7752 17.1586 11.7701 17.0291 11.1812L16.9933 11.0161C16.7635 9.96689 16.226 9.00991 15.4496 8.26717C14.6731 7.52444 13.6929 7.02961 12.6338 6.84581Z" stroke="#959296" stroke-width="2" stroke-linecap="round" stroke-linejoin="round"/>
</svg>
