<svg width="24" height="20" viewBox="0 0 24 20" fill="none" xmlns="http://www.w3.org/2000/svg">
<path d="M6.5998 8.75C7.59392 8.75 8.3998 7.91053 8.3998 6.875C8.3998 5.83947 7.59392 5 6.5998 5C5.60569 5 4.7998 5.83947 4.7998 6.875C4.7998 7.91053 5.60569 8.75 6.5998 8.75Z" fill="black"/>
<path d="M10.1998 12.5L8.3998 10L4.7998 15H19.1998L13.7998 7.5L10.1998 12.5Z" fill="black"/>
<path d="M21.6 0H2.4C1.0764 0 0 1.12125 0 2.5V17.5C0 18.8787 1.0764 20 2.4 20H21.6C22.9236 20 24 18.8787 24 17.5V2.5C24 1.12125 22.9236 0 21.6 0ZM2.4 17.5V2.5H21.6L21.6024 17.5H2.4Z" fill="black"/>
</svg>
