<svg width="22" height="22" viewBox="0 0 22 22" fill="none" xmlns="http://www.w3.org/2000/svg">
<path d="M0 10.9845C0 12.427 0.284511 13.8554 0.837288 15.1881C1.39007 16.5208 2.20028 17.7317 3.22168 18.7517C5.28449 20.8117 8.08226 21.969 10.9995 21.969C13.5394 21.9786 16.0027 21.1004 17.9622 19.4865L20.1621 21.6834C20.3168 21.8359 20.5132 21.9391 20.7266 21.9802C20.94 22.0212 21.1607 21.9982 21.3611 21.9141C21.559 21.8229 21.7253 21.675 21.8389 21.4892C21.9524 21.3034 22.0082 21.0881 21.999 20.8706L21.999 10.9845C21.999 8.07124 20.8402 5.27729 18.7773 3.21729C16.7145 1.1573 13.9168 1.90735e-06 10.9995 1.90735e-06C8.08226 1.90735e-06 5.28449 1.1573 3.22168 3.21729C1.15887 5.27729 0 8.07124 0 10.9845ZM19.7991 10.9845L19.7991 18.2233L18.7762 17.2018C18.5701 16.9972 18.2913 16.8823 18.0007 16.8823C17.7101 16.8823 17.4313 16.9972 17.2252 17.2018C15.7865 18.6401 13.893 19.5358 11.8671 19.7362C9.84132 19.9367 7.80856 19.4295 6.1152 18.3011C4.42185 17.1726 3.17265 15.4928 2.58046 13.5477C1.98826 11.6027 2.08969 9.51275 2.86748 7.634C3.64526 5.75526 5.05128 4.20394 6.84598 3.24435C8.64068 2.28475 10.713 1.97626 12.7099 2.37142C14.7069 2.76658 16.5048 3.84095 17.7975 5.41148C19.0901 6.98202 19.7975 8.95155 19.7991 10.9845Z" fill="white"/>
</svg>
