<svg width="22" height="22" viewBox="0 0 22 22" fill="none" xmlns="http://www.w3.org/2000/svg">
<path d="M11.0018 1.82141C12.2585 0.604225 13.8983 -0.0459402 15.5842 0.00452395C17.2702 0.0549881 18.8743 0.802248 20.0668 2.09275C21.2583 3.3818 21.949 5.11518 21.9973 6.93757C22.0456 8.75995 21.4477 10.5333 20.3264 11.894L10.9996 22L1.67505 11.894C0.552381 10.5326 -0.045998 8.75772 0.00276204 6.93387C0.0515221 5.11002 0.743722 3.37557 1.93725 2.08659C3.13078 0.797616 4.73508 0.0519254 6.42077 0.00261104C8.10647 -0.0467033 9.74566 0.604101 11.0018 1.82141ZM18.5094 3.77429C17.7149 2.91522 16.6466 2.41773 15.5238 2.38387C14.401 2.35001 13.3088 2.78236 12.4712 3.59222L11.0029 5.0179L9.53351 3.59341C8.69946 2.78642 7.61258 2.3536 6.49403 2.38303C5.37548 2.41245 4.30932 2.90191 3.51249 3.7518C2.71567 4.60169 2.24806 5.74814 2.20482 6.95788C2.16158 8.16762 2.54596 9.34973 3.27974 10.2637L11.0007 18.6309L18.7217 10.2649C19.4524 9.35495 19.8368 8.17898 19.7974 6.97432C19.758 5.76967 19.2977 4.62604 18.5094 3.77429Z" fill="white"/>
</svg>
