<svg width="22" height="22" viewBox="0 0 22 22" fill="none" xmlns="http://www.w3.org/2000/svg">
<path d="M10.56 12.4348V20.087H1.76V12.4348H10.56ZM10.56 10.5217H1.76C1.29322 10.5217 0.845556 10.7233 0.515492 11.0821C0.185428 11.4408 0 11.9274 0 12.4348V20.087C0 20.5943 0.185428 21.0809 0.515492 21.4397C0.845556 21.7984 1.29322 22 1.76 22H10.56C11.0268 22 11.4744 21.7984 11.8045 21.4397C12.1346 21.0809 12.32 20.5943 12.32 20.087V12.4348C12.32 11.9274 12.1346 11.4408 11.8045 11.0821C11.4744 10.7233 11.0268 10.5217 10.56 10.5217ZM20.24 1.91304V6.69565H11.44V1.91304H20.24ZM20.24 0H11.44C10.9732 0 10.5256 0.201552 10.1955 0.560317C9.86543 0.919083 9.68 1.40567 9.68 1.91304V6.69565C9.68 7.20302 9.86543 7.68961 10.1955 8.04838C10.5256 8.40714 10.9732 8.6087 11.44 8.6087H20.24C20.7068 8.6087 21.1544 8.40714 21.4845 8.04838C21.8146 7.68961 22 7.20302 22 6.69565V1.91304C22 1.40567 21.8146 0.919083 21.4845 0.560317C21.1544 0.201552 20.7068 0 20.24 0ZM20.24 12.4348V17.2174H15.84V12.4348H20.24ZM20.24 10.5217H15.84C15.3732 10.5217 14.9256 10.7233 14.5955 11.0821C14.2654 11.4408 14.08 11.9274 14.08 12.4348V17.2174C14.08 17.7248 14.2654 18.2114 14.5955 18.5701C14.9256 18.9289 15.3732 19.1304 15.84 19.1304H20.24C20.7068 19.1304 21.1544 18.9289 21.4845 18.5701C21.8146 18.2114 22 17.7248 22 17.2174V12.4348C22 11.9274 21.8146 11.4408 21.4845 11.0821C21.1544 10.7233 20.7068 10.5217 20.24 10.5217ZM6.16 1.91304V6.69565H1.76V1.91304H6.16ZM6.16 0H1.76C1.29322 0 0.845556 0.201552 0.515492 0.560317C0.185428 0.919083 0 1.40567 0 1.91304V6.69565C0 7.20302 0.185428 7.68961 0.515492 8.04838C0.845556 8.40714 1.29322 8.6087 1.76 8.6087H6.16C6.62678 8.6087 7.07444 8.40714 7.40451 8.04838C7.73457 7.68961 7.92 7.20302 7.92 6.69565V1.91304C7.92 1.40567 7.73457 0.919083 7.40451 0.560317C7.07444 0.201552 6.62678 0 6.16 0Z" fill="#959296"/>
</svg>
