<svg width="22" height="22" viewBox="0 0 22 22" fill="none" xmlns="http://www.w3.org/2000/svg">
<path d="M15.5833 0C13.9398 0 12.4502 0.308 11.286 0.88825C10.1228 1.4685 9.16667 2.41358 9.16667 3.66667V7.33333C9.16667 7.45158 9.20608 7.56617 9.22442 7.67708C8.30686 7.44392 7.36337 7.32841 6.41667 7.33333C4.77308 7.33333 3.2835 7.64133 2.11933 8.22158C0.956083 8.80183 0 9.74692 0 11V18.3333C0 19.5864 0.956084 20.5315 2.12025 21.1117C3.2835 21.692 4.77308 22 6.41667 22C8.06025 22 9.54983 21.692 10.714 21.1117C11.8763 20.5315 12.8333 19.5864 12.8333 18.3333V17.9612C13.7301 18.2036 14.6544 18.3287 15.5833 18.3333C17.2269 18.3333 18.7165 18.0253 19.8807 17.4451C21.043 16.8648 22 15.9198 22 14.6667V3.66667C22 2.41358 21.0439 1.4685 19.8798 0.88825C18.7174 0.308 17.2278 0 15.5833 0ZM15.5833 1.83333C16.9794 1.83333 18.2224 2.134 19.0492 2.54925C19.877 2.9645 20.1667 3.40175 20.1667 3.66667C20.1667 3.9325 19.877 4.36883 19.0492 4.78408C18.2233 5.19933 16.9794 5.5 15.5833 5.5C14.1873 5.5 12.9443 5.19933 12.1174 4.78408C11.2897 4.36883 11 3.93158 11 3.66667C11 3.40083 11.2897 2.9645 12.1174 2.54925C12.9433 2.134 14.1873 1.83333 15.5833 1.83333ZM11 6.27367C11.0963 6.32683 11.1861 6.39558 11.2869 6.44508C12.4502 7.02533 13.9398 7.33333 15.5833 7.33333C17.2269 7.33333 18.7165 7.02533 19.8807 6.44508C19.9806 6.39558 20.0704 6.32683 20.1667 6.27367V7.33333C20.1667 7.59917 19.877 8.0355 19.0492 8.45075C18.2224 8.866 16.9794 9.16667 15.5833 9.16667C14.1873 9.16667 12.9443 8.866 12.1174 8.45075C11.2897 8.0355 11 7.59825 11 7.33333V6.27367ZM6.41667 9.16667C7.81275 9.16667 9.05575 9.46733 9.88258 9.88258C10.7103 10.2978 11 10.7351 11 11C11 11.2658 10.7103 11.7022 9.88258 12.1174C9.05575 12.5327 7.81275 12.8333 6.41667 12.8333C5.02058 12.8333 3.77758 12.5327 2.95075 12.1174C2.123 11.7022 1.83333 11.2649 1.83333 11C1.83333 10.7342 2.123 10.2978 2.95075 9.88258C3.77667 9.46733 5.02058 9.16667 6.41667 9.16667ZM20.1667 9.94033V11C20.1667 11.2658 19.877 11.7022 19.0492 12.1174C18.2224 12.5327 16.9794 12.8333 15.5833 12.8333C14.6495 12.8384 13.721 12.6932 12.8333 12.4034V11C12.8333 10.8818 12.7939 10.7672 12.7756 10.6562C13.6281 10.8781 14.5732 11 15.5833 11C17.2269 11 18.7165 10.692 19.8807 10.1118C19.9806 10.0623 20.0704 9.9935 20.1667 9.94033ZM1.83333 13.607C1.92958 13.6602 2.01942 13.7289 2.12025 13.7784C3.2835 14.3587 4.77308 14.6667 6.41667 14.6667C8.06025 14.6667 9.54983 14.3587 10.714 13.7784C10.8139 13.7289 10.9038 13.6602 11 13.607V14.6667C11 14.9325 10.7103 15.3688 9.88258 15.7841C9.05575 16.1993 7.81275 16.5 6.41667 16.5C5.02058 16.5 3.77758 16.1993 2.95075 15.7841C2.123 15.3688 1.83333 14.9316 1.83333 14.6667V13.607ZM20.1667 13.607V14.6667C20.1667 14.9325 19.877 15.3688 19.0492 15.7841C18.2224 16.1993 16.9794 16.5 15.5833 16.5C14.5411 16.5 13.5997 16.3533 12.8333 16.0985V14.3229C13.6748 14.5448 14.5915 14.6667 15.5833 14.6667C17.2269 14.6667 18.7165 14.3587 19.8807 13.7784C19.9806 13.7289 20.0704 13.6602 20.1667 13.607ZM1.83333 17.2737C1.92958 17.3268 2.01942 17.3956 2.12025 17.4451C3.2835 18.0253 4.77308 18.3333 6.41667 18.3333C8.06025 18.3333 9.54983 18.0253 10.714 17.4451C10.8139 17.3956 10.9038 17.3268 11 17.2737V18.3333C11 18.5992 10.7103 19.0355 9.88258 19.4508C9.05575 19.866 7.81275 20.1667 6.41667 20.1667C5.02058 20.1667 3.77758 19.866 2.95075 19.4508C2.123 19.0355 1.83333 18.5983 1.83333 18.3333V17.2737Z" fill="#959296"/>
</svg>
