<svg width="26" height="26" viewBox="0 0 26 26" fill="none" xmlns="http://www.w3.org/2000/svg">
<path d="M16.25 6.5H3.25V8.66667H16.25V6.5ZM16.25 10.8333H3.25V13H16.25V10.8333ZM3.25 17.3333H11.9167V15.1667H3.25V17.3333ZM18.4167 6.5V15.3617C18.0808 15.2425 17.7125 15.1667 17.3333 15.1667C16.4714 15.1667 15.6447 15.5091 15.0352 16.1186C14.4257 16.7281 14.0833 17.5547 14.0833 18.4167C14.0833 19.2786 14.4257 20.1053 15.0352 20.7148C15.6447 21.3243 16.4714 21.6667 17.3333 21.6667C18.1953 21.6667 19.0219 21.3243 19.6314 20.7148C20.2409 20.1053 20.5833 19.2786 20.5833 18.4167V8.66667H23.8333V6.5H18.4167Z" fill="#0FACFD"/>
</svg>
