<svg width="22" height="23" viewBox="0 0 22 23" fill="none" xmlns="http://www.w3.org/2000/svg">
<path d="M16.2105 19.9591H2.31579V5.7952H10.4211V3.47705H2.31579C1.04211 3.47705 0 4.52022 0 5.7952V19.7041C0 20.9791 1.04211 22.0222 2.31579 22.0222H16.2105C17.4842 22.0222 18.5263 20.9791 18.5263 19.7041V11.5906H16.2105V19.9591Z" fill="white"/>
<path d="M18.5261 0H16.2103V3.47722H12.7366C12.7482 3.48881 12.7366 5.79537 12.7366 5.79537H16.2103V9.261C16.2219 9.27259 18.5261 9.261 18.5261 9.261V5.79537H21.9998V3.47722H18.5261V0ZM4.63135 8.11352H13.8945V10.4317H4.63135V8.11352ZM4.63135 11.5907V13.9089H13.8945V11.5907H10.4208H4.63135ZM4.63135 15.068H13.8945V17.3861H4.63135V15.068Z" fill="white"/>
</svg>
