<svg width="24" height="25" viewBox="0 0 24 25" fill="none" xmlns="http://www.w3.org/2000/svg">
<path d="M3.65258 23.0218C4.01548 23.0309 4.37653 22.9672 4.71445 22.8346C5.05238 22.702 5.36035 22.5031 5.62023 22.2496C5.88011 21.9961 6.08664 21.6931 6.22765 21.3586C6.36867 21.024 6.44131 20.6646 6.44131 20.3016C6.44131 19.9385 6.36867 19.5791 6.22765 19.2445C6.08664 18.91 5.88011 18.607 5.62023 18.3535C5.36035 18.1 5.05238 17.9011 4.71445 17.7685C4.37653 17.6359 4.01548 17.5722 3.65258 17.5813C2.94303 17.5991 2.26851 17.8935 1.77294 18.4017C1.27738 18.9099 1 19.5917 1 20.3016C1 21.0114 1.27738 21.6932 1.77294 22.2014C2.26851 22.7096 2.94303 23.004 3.65258 23.0218ZM15.8947 20.3007C16.2576 20.3098 16.6186 20.2461 16.9566 20.1135C17.2945 19.9809 17.6025 19.782 17.8623 19.5285C18.1222 19.275 18.3287 18.972 18.4698 18.6375C18.6108 18.3029 18.6834 17.9435 18.6834 17.5805C18.6834 17.2174 18.6108 16.858 18.4698 16.5234C18.3287 16.1889 18.1222 15.8859 17.8623 15.6324C17.6025 15.3789 17.2945 15.18 16.9566 15.0474C16.6186 14.9148 16.2576 14.8511 15.8947 14.8602C15.1851 14.878 14.5106 15.1724 14.015 15.6806C13.5195 16.1888 13.2421 16.8706 13.2421 17.5805C13.2421 18.2904 13.5195 18.9721 14.015 19.4803C14.5106 19.9886 15.1851 20.2829 15.8947 20.3007Z" stroke="white" stroke-width="2" stroke-linecap="round" stroke-linejoin="round"/>
<path d="M6.37305 20.3005V9.25593C6.37388 9.10669 6.42367 8.96186 6.51477 8.84366C6.60587 8.72547 6.73323 8.64044 6.87731 8.60164L9.02386 7.98654M6.37305 12.8187L13.2897 10.8968M18.6135 17.5811V15.1803M12.6338 6.85176C12.0375 6.74782 12.0375 5.88907 12.6338 5.78513C13.6929 5.60114 14.6731 5.10581 15.4496 4.36232C16.226 3.61882 16.7635 2.66087 16.9933 1.61063L17.0291 1.44536C17.1586 0.854111 18.0002 0.850704 18.1347 1.44024L18.1773 1.63278C18.4158 2.67836 18.958 3.63009 19.7359 4.3683C20.5137 5.10651 21.4923 5.59826 22.5488 5.78172C23.1502 5.88736 23.1502 6.74953 22.5488 6.85517C21.4923 7.03863 20.5137 7.53038 19.7359 8.26859C18.958 9.0068 18.4158 9.95853 18.1773 11.0041L18.1347 11.1949C17.9984 11.7862 17.1586 11.7811 17.0291 11.1915L16.9933 11.0263C16.7635 9.97602 16.226 9.01807 15.4496 8.27457C14.6731 7.53108 13.6929 7.03575 12.6338 6.85176Z" stroke="white" stroke-width="2" stroke-linecap="round" stroke-linejoin="round"/>
</svg>
