<svg width="22" height="20" viewBox="0 0 22 20" fill="none" xmlns="http://www.w3.org/2000/svg">
<path d="M17.9474 7.13226H22V9.50967H19.6842V16.0476C19.6842 16.8797 19.4044 17.583 18.8447 18.1575C18.2851 18.7321 17.6 19.0193 16.7895 19.0193C15.9789 19.0193 15.2939 18.7321 14.7342 18.1575C14.1746 17.583 13.8947 16.8797 13.8947 16.0476C13.8947 15.2155 14.1746 14.5122 14.7342 13.9376C15.2939 13.3631 15.9789 13.0758 16.7895 13.0758C16.9439 13.0758 17.1175 13.0909 17.3105 13.121C17.5035 13.1511 17.7158 13.2153 17.9474 13.3135V7.13226ZM0 19.0193V15.691C0 14.9975 0.169053 14.3735 0.507158 13.8187C0.845263 13.264 1.29375 12.8381 1.85263 12.5409C3.04912 11.9267 4.26491 11.4663 5.5 11.1596C6.73509 10.8529 7.98947 10.6992 9.26316 10.6984C10.0737 10.6984 10.8796 10.763 11.6808 10.8921C12.4821 11.0213 13.2876 11.2143 14.0974 11.471C13.7114 11.7088 13.364 11.9961 13.0553 12.3329C12.7465 12.6697 12.4763 13.0362 12.2447 13.4324C11.743 13.3135 11.2462 13.2244 10.7545 13.165C10.2628 13.1055 9.76568 13.0758 9.26316 13.0758C8.16316 13.0758 7.08246 13.2145 6.02105 13.4919C4.95965 13.7692 3.91754 14.1655 2.89474 14.6806C2.72105 14.7796 2.58133 14.9183 2.47558 15.0966C2.36982 15.2749 2.31656 15.473 2.31579 15.691V16.6419H11.6079C11.6465 17.0382 11.7383 17.4344 11.8835 17.8306C12.0286 18.2269 12.2262 18.6231 12.4763 19.0193H0ZM9.26316 9.50967C7.98947 9.50967 6.89912 9.0441 5.99211 8.11294C5.08509 7.18178 4.63158 6.06242 4.63158 4.75484C4.63158 3.44726 5.08509 2.32789 5.99211 1.39673C6.89912 0.465578 7.98947 0 9.26316 0C10.5368 0 11.6272 0.465578 12.5342 1.39673C13.4412 2.32789 13.8947 3.44726 13.8947 4.75484C13.8947 6.06242 13.4412 7.18178 12.5342 8.11294C11.6272 9.0441 10.5368 9.50967 9.26316 9.50967ZM9.26316 7.13226C9.9 7.13226 10.4454 6.89966 10.8993 6.43448C11.3532 5.9693 11.5797 5.40942 11.5789 4.75484C11.5782 4.10025 11.3516 3.54077 10.8993 3.07638C10.4469 2.61199 9.90154 2.379 9.26316 2.37742C8.62477 2.37583 8.07979 2.60882 7.62821 3.07638C7.17663 3.54394 6.94968 4.10342 6.94737 4.75484C6.94505 5.40625 7.172 5.96613 7.62821 6.43448C8.08442 6.90283 8.6294 7.13543 9.26316 7.13226Z" fill="white"/>
</svg>
