<svg width="22" height="23" viewBox="0 0 22 23" fill="none" xmlns="http://www.w3.org/2000/svg">
<path d="M15.8889 22.0223C14.1981 22.0223 12.7571 21.4853 11.5659 20.4114C10.3746 19.3374 9.77859 18.0392 9.77777 16.5167C9.77696 14.9943 10.373 13.6961 11.5659 12.6221C12.7588 11.5481 14.1998 11.0112 15.8889 11.0112C17.578 11.0112 19.0194 11.5481 20.2131 12.6221C21.4068 13.6961 22.0024 14.9943 22 16.5167C21.9975 18.0392 21.4015 19.3378 20.2119 20.4125C19.0223 21.4872 17.5813 22.0238 15.8889 22.0223ZM9.77777 22.0223C6.94629 21.38 4.60859 19.9163 2.76467 17.6311C0.920741 15.3459 -0.000814275 12.8089 5.39851e-07 10.0202V3.30335L9.77777 0L19.5555 3.30335V9.55218C19.0259 9.31361 18.4299 9.13009 17.7674 9.00163C17.105 8.87316 16.4788 8.80893 15.8889 8.80893C13.5259 8.80893 11.5093 9.56136 9.83889 11.0662C8.16852 12.5711 7.33333 14.3879 7.33333 16.5167C7.33333 17.6546 7.57289 18.6823 8.052 19.5999C8.53111 20.5175 9.13692 21.3158 9.86944 21.9948C9.84907 21.9948 9.834 21.9996 9.82422 22.0091C9.81444 22.0187 9.79896 22.0231 9.77777 22.0223ZM15.2778 19.8201H16.5V17.0673H19.5555V15.9662H16.5V13.2134H15.2778V15.9662H12.2222V17.0673H15.2778V19.8201Z" fill="white"/>
</svg>
