<svg width="23" height="24" viewBox="0 0 23 24" fill="none" xmlns="http://www.w3.org/2000/svg">
<path d="M7.27977 21C7.27977 21.5523 7.72748 22 8.27977 22C8.83205 22 9.27977 21.5523 9.27977 21H7.27977ZM12.7998 21C12.7998 21.5523 13.2475 22 13.7998 22C14.3521 22 14.7998 21.5523 14.7998 21H12.7998ZM10.4 3.21117L10.9922 4.01691L10.9922 4.01691L10.4 3.21117ZM11.6796 3.21117L12.2718 2.40543L11.6796 3.21117ZM18.8556 8.48603L18.2633 9.29177L18.8556 8.48603ZM3.22397 8.48603L2.6317 7.68029L2.6317 7.68029L3.22397 8.48603ZM9.27977 21V14.1528H7.27977V21H9.27977ZM9.38377 14.0116H12.6958V12.0116H9.38377V14.0116ZM12.7998 14.1528V21H14.7998V14.1528H12.7998ZM12.6958 14.0116C12.7137 14.0116 12.7349 14.0176 12.7577 14.0412C12.7811 14.0653 12.7998 14.1029 12.7998 14.1528H14.7998C14.7998 13.0018 13.8887 12.0116 12.6958 12.0116V14.0116ZM9.27977 14.1528C9.27977 14.1029 9.29848 14.0653 9.32184 14.0412C9.34464 14.0176 9.36586 14.0116 9.38377 14.0116V12.0116C8.19078 12.0116 7.27977 13.0018 7.27977 14.1528H9.27977ZM18.3198 9.41605V19.2882H20.3198V9.41605H18.3198ZM17.6638 20H4.41577V22H17.6638V20ZM3.75977 19.2882V9.41605H1.75977V19.2882H3.75977ZM3.81624 9.29177L10.9922 4.01691L9.8077 2.40543L2.6317 7.68029L3.81624 9.29177ZM11.0873 4.01691L18.2633 9.29177L19.4478 7.68029L12.2718 2.40543L11.0873 4.01691ZM10.9922 4.01691C11.01 4.00389 11.0261 4 11.0398 4C11.0535 4 11.0696 4.00389 11.0873 4.01691L12.2718 2.40543C11.5364 1.86486 10.5431 1.86485 9.8077 2.40543L10.9922 4.01691ZM4.41577 20C4.08444 20 3.75977 19.7128 3.75977 19.2882H1.75977C1.75977 20.7544 2.91792 22 4.41577 22V20ZM18.3198 19.2882C18.3198 19.7128 17.9951 20 17.6638 20V22C19.1616 22 20.3198 20.7544 20.3198 19.2882H18.3198ZM20.3198 9.41605C20.3198 8.73678 20.002 8.08764 19.4478 7.68029L18.2633 9.29177C18.2916 9.31257 18.3198 9.35653 18.3198 9.41605H20.3198ZM3.75977 9.41605C3.75977 9.35653 3.78795 9.31257 3.81624 9.29177L2.6317 7.68029C2.07753 8.08764 1.75977 8.73678 1.75977 9.41605H3.75977Z" fill="#0FACFD"/>
</svg>
