<svg width="1363" height="163" viewBox="0 0 1363 163" fill="none" xmlns="http://www.w3.org/2000/svg">
<path d="M0 15C0 6.71573 6.71573 0 15 0H37V163H15C6.71573 163 0 156.284 0 148V15Z" fill="#424242"/>
<rect width="1097" height="163" transform="translate(37)" fill="#F0F0F0"/>
<path d="M101.906 53.9219L94.3945 51.2383V48.0859L104.602 52.375V54.6367L101.906 53.9219ZM94.3945 56.1719L101.918 53.4297L104.602 52.7852V55.0352L94.3945 59.3242V56.1719ZM116.414 43.9375V61H112.898V43.9375H116.414ZM126.633 43.9375L119.871 52.3633L115.969 56.5586L115.336 53.2305L117.973 49.6211L122.32 43.9375H126.633ZM122.637 61L117.609 53.1133L120.211 50.9336L126.797 61H122.637ZM139.125 58.2578V61H130.535V58.2578H139.125ZM131.672 43.9375V61H128.156V43.9375H131.672ZM150.164 43.9375H153.668V55.2109C153.668 56.5234 153.387 57.6289 152.824 58.5273C152.27 59.4258 151.5 60.1016 150.516 60.5547C149.539 61.0078 148.414 61.2344 147.141 61.2344C145.867 61.2344 144.734 61.0078 143.742 60.5547C142.758 60.1016 141.984 59.4258 141.422 58.5273C140.867 57.6289 140.59 56.5234 140.59 55.2109V43.9375H144.105V55.2109C144.105 55.9766 144.227 56.6016 144.469 57.0859C144.711 57.5703 145.059 57.9258 145.512 58.1523C145.973 58.3789 146.516 58.4922 147.141 58.4922C147.781 58.4922 148.324 58.3789 148.77 58.1523C149.223 57.9258 149.566 57.5703 149.801 57.0859C150.043 56.6016 150.164 55.9766 150.164 55.2109V43.9375ZM163.242 53.5117H158.859L158.836 51.0977H162.516C163.164 51.0977 163.695 51.0156 164.109 50.8516C164.523 50.6797 164.832 50.4336 165.035 50.1133C165.246 49.7852 165.352 49.3867 165.352 48.918C165.352 48.3867 165.25 47.957 165.047 47.6289C164.852 47.3008 164.543 47.0625 164.121 46.9141C163.707 46.7656 163.172 46.6914 162.516 46.6914H160.078V61H156.562V43.9375H162.516C163.508 43.9375 164.395 44.0312 165.176 44.2188C165.965 44.4062 166.633 44.6914 167.18 45.0742C167.727 45.457 168.145 45.9414 168.434 46.5273C168.723 47.1055 168.867 47.793 168.867 48.5898C168.867 49.293 168.707 49.9414 168.387 50.5352C168.074 51.1289 167.578 51.6133 166.898 51.9883C166.227 52.3633 165.348 52.5703 164.262 52.6094L163.242 53.5117ZM163.09 61H157.898L159.27 58.2578H163.09C163.707 58.2578 164.211 58.1602 164.602 57.9648C164.992 57.7617 165.281 57.4883 165.469 57.1445C165.656 56.8008 165.75 56.4062 165.75 55.9609C165.75 55.4609 165.664 55.0273 165.492 54.6602C165.328 54.293 165.062 54.0117 164.695 53.8164C164.328 53.6133 163.844 53.5117 163.242 53.5117H159.855L159.879 51.0977H164.098L164.906 52.0469C165.945 52.0312 166.781 52.2148 167.414 52.5977C168.055 52.9727 168.52 53.4609 168.809 54.0625C169.105 54.6641 169.254 55.3086 169.254 55.9961C169.254 57.0898 169.016 58.0117 168.539 58.7617C168.062 59.5039 167.363 60.0625 166.441 60.4375C165.527 60.8125 164.41 61 163.09 61ZM178.793 55.7617V43.9375H182.297V55.7617C182.297 56.9023 182.047 57.8828 181.547 58.7031C181.047 59.5156 180.363 60.1406 179.496 60.5781C178.637 61.0156 177.668 61.2344 176.59 61.2344C175.473 61.2344 174.484 61.0469 173.625 60.6719C172.766 60.2969 172.09 59.7227 171.598 58.9492C171.105 58.168 170.859 57.1797 170.859 55.9844H174.387C174.387 56.6094 174.473 57.1055 174.645 57.4727C174.824 57.8398 175.078 58.1016 175.406 58.2578C175.734 58.4141 176.129 58.4922 176.59 58.4922C177.035 58.4922 177.422 58.3867 177.75 58.1758C178.078 57.9648 178.332 57.6562 178.512 57.25C178.699 56.8438 178.793 56.3477 178.793 55.7617ZM191.977 46.8555L187.336 61H183.598L189.938 43.9375H192.316L191.977 46.8555ZM195.832 61L191.18 46.8555L190.805 43.9375H193.207L199.582 61H195.832ZM195.621 54.6484V57.4023H186.609V54.6484H195.621ZM202.77 43.9375H205.746L210.129 56.4648L214.512 43.9375H217.488L211.324 61H208.934L202.77 43.9375ZM201.164 43.9375H204.129L204.668 56.1484V61H201.164V43.9375ZM216.129 43.9375H219.105V61H215.59V56.1484L216.129 43.9375Z" fill="#888888"/>
<path d="M114.117 84.875H122.344V107.164C122.344 109.82 121.789 112.07 120.68 113.914C119.57 115.742 118.016 117.125 116.016 118.062C114.016 119 111.664 119.469 108.961 119.469C106.289 119.469 103.938 119 101.906 118.062C99.8906 117.125 98.3125 115.742 97.1719 113.914C96.0469 112.07 95.4844 109.82 95.4844 107.164V84.875H103.734V107.164C103.734 108.57 103.938 109.719 104.344 110.609C104.75 111.484 105.344 112.125 106.125 112.531C106.906 112.938 107.852 113.141 108.961 113.141C110.086 113.141 111.031 112.938 111.797 112.531C112.562 112.125 113.141 111.484 113.531 110.609C113.922 109.719 114.117 108.57 114.117 107.164V84.875ZM136.266 84.875V119H128.062V84.875H136.266ZM172.523 84.875H180.75V107.164C180.75 109.82 180.195 112.07 179.086 113.914C177.977 115.742 176.422 117.125 174.422 118.062C172.422 119 170.07 119.469 167.367 119.469C164.695 119.469 162.344 119 160.312 118.062C158.297 117.125 156.719 115.742 155.578 113.914C154.453 112.07 153.891 109.82 153.891 107.164V84.875H162.141V107.164C162.141 108.57 162.344 109.719 162.75 110.609C163.156 111.484 163.75 112.125 164.531 112.531C165.312 112.938 166.258 113.141 167.367 113.141C168.492 113.141 169.438 112.938 170.203 112.531C170.969 112.125 171.547 111.484 171.938 110.609C172.328 109.719 172.523 108.57 172.523 107.164V84.875ZM193.078 84.875L198.656 96.2188L204.234 84.875H213.609L204.094 101.797L213.867 119H204.398L198.656 107.445L192.914 119H183.422L193.219 101.797L183.68 84.875H193.078Z" fill="black"/>
<path d="M1134 0H1348C1356.28 0 1363 6.71573 1363 15V148C1363 156.284 1356.28 163 1348 163H1134V0Z" fill="#DA45FF"/>
<path d="M1248.5 111.917C1244.51 111.917 1240.55 111.13 1236.86 109.601C1233.17 108.073 1229.82 105.832 1226.99 103.008C1221.29 97.3036 1218.08 89.567 1218.08 81.5C1218.08 73.433 1221.29 65.6964 1226.99 59.9922C1232.7 54.2879 1240.43 51.0833 1248.5 51.0833C1265.23 51.0833 1278.92 63.25 1278.92 78.4583C1278.92 83.2985 1276.99 87.9405 1273.57 91.363C1270.15 94.7856 1265.51 96.7083 1260.67 96.7083H1255.19C1254.28 96.7083 1253.67 97.3167 1253.67 98.2292C1253.67 98.5333 1253.97 98.8375 1253.97 99.1417C1255.19 100.662 1255.8 102.487 1255.8 104.312C1256.1 108.571 1252.76 111.917 1248.5 111.917ZM1248.5 57.1667C1242.05 57.1667 1235.86 59.7303 1231.29 64.2937C1226.73 68.8571 1224.17 75.0464 1224.17 81.5C1224.17 87.9536 1226.73 94.1429 1231.29 98.7063C1235.86 103.27 1242.05 105.833 1248.5 105.833C1249.41 105.833 1250.02 105.225 1250.02 104.312C1250.02 103.704 1249.72 103.4 1249.72 103.096C1248.5 101.575 1247.89 100.054 1247.89 98.2292C1247.89 93.9708 1251.24 90.625 1255.5 90.625H1260.67C1263.89 90.625 1266.99 89.3432 1269.27 87.0615C1271.55 84.7798 1272.83 81.6851 1272.83 78.4583C1272.83 66.5958 1261.88 57.1667 1248.5 57.1667ZM1231.77 75.4167C1234.2 75.4167 1236.33 77.5458 1236.33 79.9792C1236.33 82.4125 1234.2 84.5417 1231.77 84.5417C1229.34 84.5417 1227.21 82.4125 1227.21 79.9792C1227.21 77.5458 1229.34 75.4167 1231.77 75.4167ZM1240.9 63.25C1243.33 63.25 1245.46 65.3792 1245.46 67.8125C1245.46 70.2458 1243.33 72.375 1240.9 72.375C1238.46 72.375 1236.33 70.2458 1236.33 67.8125C1236.33 65.3792 1238.46 63.25 1240.9 63.25ZM1256.1 63.25C1258.54 63.25 1260.67 65.3792 1260.67 67.8125C1260.67 70.2458 1258.54 72.375 1256.1 72.375C1253.67 72.375 1251.54 70.2458 1251.54 67.8125C1251.54 65.3792 1253.67 63.25 1256.1 63.25ZM1265.23 75.4167C1267.66 75.4167 1269.79 77.5458 1269.79 79.9792C1269.79 82.4125 1267.66 84.5417 1265.23 84.5417C1262.8 84.5417 1260.67 82.4125 1260.67 79.9792C1260.67 77.5458 1262.8 75.4167 1265.23 75.4167Z" fill="white"/>
</svg>
