<svg width="1363" height="163" viewBox="0 0 1363 163" fill="none" xmlns="http://www.w3.org/2000/svg">
<path d="M0 15C0 6.71573 6.71573 0 15 0H37V163H15C6.71573 163 0 156.284 0 148V15Z" fill="#424242"/>
<rect width="1097" height="163" transform="translate(37)" fill="#F0F0F0"/>
<path d="M101.906 53.9219L94.3945 51.2383V48.0859L104.602 52.375V54.6367L101.906 53.9219ZM94.3945 56.1719L101.918 53.4297L104.602 52.7852V55.0352L94.3945 59.3242V56.1719ZM116.414 43.9375V61H112.898V43.9375H116.414ZM126.633 43.9375L119.871 52.3633L115.969 56.5586L115.336 53.2305L117.973 49.6211L122.32 43.9375H126.633ZM122.637 61L117.609 53.1133L120.211 50.9336L126.797 61H122.637ZM139.125 58.2578V61H130.535V58.2578H139.125ZM131.672 43.9375V61H128.156V43.9375H131.672ZM150.164 43.9375H153.668V55.2109C153.668 56.5234 153.387 57.6289 152.824 58.5273C152.27 59.4258 151.5 60.1016 150.516 60.5547C149.539 61.0078 148.414 61.2344 147.141 61.2344C145.867 61.2344 144.734 61.0078 143.742 60.5547C142.758 60.1016 141.984 59.4258 141.422 58.5273C140.867 57.6289 140.59 56.5234 140.59 55.2109V43.9375H144.105V55.2109C144.105 55.9766 144.227 56.6016 144.469 57.0859C144.711 57.5703 145.059 57.9258 145.512 58.1523C145.973 58.3789 146.516 58.4922 147.141 58.4922C147.781 58.4922 148.324 58.3789 148.77 58.1523C149.223 57.9258 149.566 57.5703 149.801 57.0859C150.043 56.6016 150.164 55.9766 150.164 55.2109V43.9375ZM163.242 53.5117H158.859L158.836 51.0977H162.516C163.164 51.0977 163.695 51.0156 164.109 50.8516C164.523 50.6797 164.832 50.4336 165.035 50.1133C165.246 49.7852 165.352 49.3867 165.352 48.918C165.352 48.3867 165.25 47.957 165.047 47.6289C164.852 47.3008 164.543 47.0625 164.121 46.9141C163.707 46.7656 163.172 46.6914 162.516 46.6914H160.078V61H156.562V43.9375H162.516C163.508 43.9375 164.395 44.0312 165.176 44.2188C165.965 44.4062 166.633 44.6914 167.18 45.0742C167.727 45.457 168.145 45.9414 168.434 46.5273C168.723 47.1055 168.867 47.793 168.867 48.5898C168.867 49.293 168.707 49.9414 168.387 50.5352C168.074 51.1289 167.578 51.6133 166.898 51.9883C166.227 52.3633 165.348 52.5703 164.262 52.6094L163.242 53.5117ZM163.09 61H157.898L159.27 58.2578H163.09C163.707 58.2578 164.211 58.1602 164.602 57.9648C164.992 57.7617 165.281 57.4883 165.469 57.1445C165.656 56.8008 165.75 56.4062 165.75 55.9609C165.75 55.4609 165.664 55.0273 165.492 54.6602C165.328 54.293 165.062 54.0117 164.695 53.8164C164.328 53.6133 163.844 53.5117 163.242 53.5117H159.855L159.879 51.0977H164.098L164.906 52.0469C165.945 52.0312 166.781 52.2148 167.414 52.5977C168.055 52.9727 168.52 53.4609 168.809 54.0625C169.105 54.6641 169.254 55.3086 169.254 55.9961C169.254 57.0898 169.016 58.0117 168.539 58.7617C168.062 59.5039 167.363 60.0625 166.441 60.4375C165.527 60.8125 164.41 61 163.09 61ZM178.793 55.7617V43.9375H182.297V55.7617C182.297 56.9023 182.047 57.8828 181.547 58.7031C181.047 59.5156 180.363 60.1406 179.496 60.5781C178.637 61.0156 177.668 61.2344 176.59 61.2344C175.473 61.2344 174.484 61.0469 173.625 60.6719C172.766 60.2969 172.09 59.7227 171.598 58.9492C171.105 58.168 170.859 57.1797 170.859 55.9844H174.387C174.387 56.6094 174.473 57.1055 174.645 57.4727C174.824 57.8398 175.078 58.1016 175.406 58.2578C175.734 58.4141 176.129 58.4922 176.59 58.4922C177.035 58.4922 177.422 58.3867 177.75 58.1758C178.078 57.9648 178.332 57.6562 178.512 57.25C178.699 56.8438 178.793 56.3477 178.793 55.7617ZM191.977 46.8555L187.336 61H183.598L189.938 43.9375H192.316L191.977 46.8555ZM195.832 61L191.18 46.8555L190.805 43.9375H193.207L199.582 61H195.832ZM195.621 54.6484V57.4023H186.609V54.6484H195.621ZM202.77 43.9375H205.746L210.129 56.4648L214.512 43.9375H217.488L211.324 61H208.934L202.77 43.9375ZM201.164 43.9375H204.129L204.668 56.1484V61H201.164V43.9375ZM216.129 43.9375H219.105V61H215.59V56.1484L216.129 43.9375Z" fill="#888888"/>
<path d="M114.117 84.875H122.344V107.164C122.344 109.82 121.789 112.07 120.68 113.914C119.57 115.742 118.016 117.125 116.016 118.062C114.016 119 111.664 119.469 108.961 119.469C106.289 119.469 103.938 119 101.906 118.062C99.8906 117.125 98.3125 115.742 97.1719 113.914C96.0469 112.07 95.4844 109.82 95.4844 107.164V84.875H103.734V107.164C103.734 108.57 103.938 109.719 104.344 110.609C104.75 111.484 105.344 112.125 106.125 112.531C106.906 112.938 107.852 113.141 108.961 113.141C110.086 113.141 111.031 112.938 111.797 112.531C112.562 112.125 113.141 111.484 113.531 110.609C113.922 109.719 114.117 108.57 114.117 107.164V84.875ZM134.906 99.0547V119H127.008V93.6406H134.414L134.906 99.0547ZM133.969 105.453L132.117 105.5C132.117 103.562 132.352 101.836 132.82 100.32C133.289 98.7891 133.953 97.4922 134.812 96.4297C135.672 95.3672 136.695 94.5625 137.883 94.0156C139.086 93.4531 140.422 93.1719 141.891 93.1719C143.062 93.1719 144.133 93.3438 145.102 93.6875C146.086 94.0312 146.93 94.5859 147.633 95.3516C148.352 96.1172 148.898 97.1328 149.273 98.3984C149.664 99.6484 149.859 101.195 149.859 103.039V119H141.914V103.016C141.914 102 141.773 101.227 141.492 100.695C141.211 100.148 140.805 99.7734 140.273 99.5703C139.742 99.3672 139.094 99.2656 138.328 99.2656C137.516 99.2656 136.828 99.4219 136.266 99.7344C135.703 100.047 135.25 100.484 134.906 101.047C134.578 101.594 134.336 102.242 134.18 102.992C134.039 103.742 133.969 104.562 133.969 105.453ZM162.586 93.6406V119H154.664V93.6406H162.586ZM154.195 87.1016C154.195 85.9766 154.602 85.0547 155.414 84.3359C156.227 83.6172 157.281 83.2578 158.578 83.2578C159.875 83.2578 160.93 83.6172 161.742 84.3359C162.555 85.0547 162.961 85.9766 162.961 87.1016C162.961 88.2266 162.555 89.1484 161.742 89.8672C160.93 90.5859 159.875 90.9453 158.578 90.9453C157.281 90.9453 156.227 90.5859 155.414 89.8672C154.602 89.1484 154.195 88.2266 154.195 87.1016ZM180.82 93.6406V99.125H165.539V93.6406H180.82ZM168.75 87.3359H176.648V110.727C176.648 111.398 176.727 111.922 176.883 112.297C177.039 112.656 177.305 112.914 177.68 113.07C178.07 113.211 178.586 113.281 179.227 113.281C179.68 113.281 180.055 113.273 180.352 113.258C180.648 113.227 180.93 113.188 181.195 113.141V118.789C180.523 119.008 179.82 119.172 179.086 119.281C178.352 119.406 177.57 119.469 176.742 119.469C175.055 119.469 173.609 119.203 172.406 118.672C171.219 118.141 170.312 117.305 169.688 116.164C169.062 115.023 168.75 113.539 168.75 111.711V87.3359ZM211.406 84.875V119H203.18V84.875H211.406ZM221.672 84.875V91.2266H193.148V84.875H221.672ZM234.961 119.469C232.898 119.469 231.055 119.148 229.43 118.508C227.805 117.852 226.43 116.953 225.305 115.812C224.195 114.672 223.344 113.359 222.75 111.875C222.172 110.391 221.883 108.82 221.883 107.164V106.273C221.883 104.414 222.141 102.695 222.656 101.117C223.172 99.5234 223.938 98.1328 224.953 96.9453C225.969 95.7578 227.242 94.8359 228.773 94.1797C230.305 93.5078 232.086 93.1719 234.117 93.1719C235.914 93.1719 237.523 93.4609 238.945 94.0391C240.367 94.6172 241.57 95.4453 242.555 96.5234C243.555 97.6016 244.312 98.9062 244.828 100.438C245.359 101.969 245.625 103.688 245.625 105.594V108.805H224.906V103.859H237.914V103.25C237.93 102.406 237.781 101.688 237.469 101.094C237.172 100.5 236.734 100.047 236.156 99.7344C235.578 99.4219 234.875 99.2656 234.047 99.2656C233.188 99.2656 232.477 99.4531 231.914 99.8281C231.367 100.203 230.938 100.719 230.625 101.375C230.328 102.016 230.117 102.758 229.992 103.602C229.867 104.445 229.805 105.336 229.805 106.273V107.164C229.805 108.102 229.93 108.953 230.18 109.719C230.445 110.484 230.82 111.141 231.305 111.688C231.805 112.219 232.398 112.633 233.086 112.93C233.789 113.227 234.586 113.375 235.477 113.375C236.555 113.375 237.617 113.172 238.664 112.766C239.711 112.359 240.609 111.688 241.359 110.75L244.945 115.016C244.43 115.75 243.695 116.461 242.742 117.148C241.805 117.836 240.68 118.398 239.367 118.836C238.055 119.258 236.586 119.469 234.961 119.469ZM262.125 111.875C262.125 111.438 261.977 111.062 261.68 110.75C261.398 110.422 260.898 110.125 260.18 109.859C259.461 109.578 258.453 109.297 257.156 109.016C255.922 108.75 254.758 108.398 253.664 107.961C252.586 107.523 251.641 106.992 250.828 106.367C250.016 105.742 249.375 105 248.906 104.141C248.453 103.281 248.227 102.297 248.227 101.188C248.227 100.109 248.453 99.0938 248.906 98.1406C249.375 97.1719 250.055 96.3203 250.945 95.5859C251.852 94.8359 252.953 94.25 254.25 93.8281C255.547 93.3906 257.023 93.1719 258.68 93.1719C260.961 93.1719 262.93 93.5234 264.586 94.2266C266.242 94.9141 267.516 95.8828 268.406 97.1328C269.312 98.3672 269.766 99.7969 269.766 101.422H261.867C261.867 100.781 261.758 100.234 261.539 99.7812C261.336 99.3281 261 98.9844 260.531 98.75C260.062 98.5 259.438 98.375 258.656 98.375C258.109 98.375 257.609 98.4766 257.156 98.6797C256.719 98.8828 256.367 99.1641 256.102 99.5234C255.836 99.8828 255.703 100.305 255.703 100.789C255.703 101.133 255.781 101.445 255.938 101.727C256.109 101.992 256.367 102.242 256.711 102.477C257.055 102.695 257.492 102.898 258.023 103.086C258.555 103.258 259.195 103.414 259.945 103.555C261.648 103.867 263.242 104.312 264.727 104.891C266.211 105.469 267.414 106.289 268.336 107.352C269.273 108.414 269.742 109.844 269.742 111.641C269.742 112.766 269.484 113.805 268.969 114.758C268.453 115.695 267.711 116.523 266.742 117.242C265.773 117.945 264.609 118.492 263.25 118.883C261.891 119.273 260.359 119.469 258.656 119.469C256.234 119.469 254.188 119.039 252.516 118.18C250.844 117.305 249.578 116.211 248.719 114.898C247.875 113.57 247.453 112.227 247.453 110.867H254.812C254.844 111.648 255.031 112.289 255.375 112.789C255.734 113.289 256.211 113.656 256.805 113.891C257.398 114.125 258.086 114.242 258.867 114.242C259.586 114.242 260.18 114.141 260.648 113.938C261.133 113.734 261.5 113.461 261.75 113.117C262 112.758 262.125 112.344 262.125 111.875ZM286.805 93.6406V99.125H271.523V93.6406H286.805ZM274.734 87.3359H282.633V110.727C282.633 111.398 282.711 111.922 282.867 112.297C283.023 112.656 283.289 112.914 283.664 113.07C284.055 113.211 284.57 113.281 285.211 113.281C285.664 113.281 286.039 113.273 286.336 113.258C286.633 113.227 286.914 113.188 287.18 113.141V118.789C286.508 119.008 285.805 119.172 285.07 119.281C284.336 119.406 283.555 119.469 282.727 119.469C281.039 119.469 279.594 119.203 278.391 118.672C277.203 118.141 276.297 117.305 275.672 116.164C275.047 115.023 274.734 113.539 274.734 111.711V87.3359ZM298.289 93.6406V119H290.367V93.6406H298.289ZM289.898 87.1016C289.898 85.9766 290.305 85.0547 291.117 84.3359C291.93 83.6172 292.984 83.2578 294.281 83.2578C295.578 83.2578 296.633 83.6172 297.445 84.3359C298.258 85.0547 298.664 85.9766 298.664 87.1016C298.664 88.2266 298.258 89.1484 297.445 89.8672C296.633 90.5859 295.578 90.9453 294.281 90.9453C292.984 90.9453 291.93 90.5859 291.117 89.8672C290.305 89.1484 289.898 88.2266 289.898 87.1016ZM310.922 99.0547V119H303.023V93.6406H310.43L310.922 99.0547ZM309.984 105.453L308.133 105.5C308.133 103.562 308.367 101.836 308.836 100.32C309.305 98.7891 309.969 97.4922 310.828 96.4297C311.688 95.3672 312.711 94.5625 313.898 94.0156C315.102 93.4531 316.438 93.1719 317.906 93.1719C319.078 93.1719 320.148 93.3438 321.117 93.6875C322.102 94.0312 322.945 94.5859 323.648 95.3516C324.367 96.1172 324.914 97.1328 325.289 98.3984C325.68 99.6484 325.875 101.195 325.875 103.039V119H317.93V103.016C317.93 102 317.789 101.227 317.508 100.695C317.227 100.148 316.82 99.7734 316.289 99.5703C315.758 99.3672 315.109 99.2656 314.344 99.2656C313.531 99.2656 312.844 99.4219 312.281 99.7344C311.719 100.047 311.266 100.484 310.922 101.047C310.594 101.594 310.352 102.242 310.195 102.992C310.055 103.742 309.984 104.562 309.984 105.453ZM346.195 93.6406H353.367V118.016C353.367 120.359 352.828 122.344 351.75 123.969C350.672 125.609 349.164 126.852 347.227 127.695C345.305 128.555 343.055 128.984 340.477 128.984C339.336 128.984 338.172 128.836 336.984 128.539C335.797 128.258 334.688 127.836 333.656 127.273C332.625 126.711 331.758 126.016 331.055 125.188L334.359 120.547C335 121.266 335.805 121.875 336.773 122.375C337.742 122.891 338.883 123.148 340.195 123.148C341.336 123.148 342.289 122.945 343.055 122.539C343.836 122.133 344.43 121.539 344.836 120.758C345.242 119.992 345.445 119.062 345.445 117.969V99.6406L346.195 93.6406ZM329.344 106.625V106.133C329.344 104.211 329.578 102.461 330.047 100.883C330.531 99.2891 331.219 97.9219 332.109 96.7812C333.016 95.625 334.109 94.7344 335.391 94.1094C336.672 93.4844 338.117 93.1719 339.727 93.1719C341.461 93.1719 342.883 93.5078 343.992 94.1797C345.117 94.8359 346.016 95.7578 346.688 96.9453C347.375 98.1328 347.906 99.5234 348.281 101.117C348.672 102.695 349 104.398 349.266 106.227V106.812C349 108.531 348.633 110.156 348.164 111.688C347.711 113.203 347.117 114.547 346.383 115.719C345.648 116.891 344.727 117.812 343.617 118.484C342.523 119.141 341.211 119.469 339.68 119.469C338.086 119.469 336.648 119.148 335.367 118.508C334.102 117.867 333.016 116.969 332.109 115.812C331.219 114.656 330.531 113.297 330.047 111.734C329.578 110.172 329.344 108.469 329.344 106.625ZM337.242 106.133V106.625C337.242 107.578 337.328 108.461 337.5 109.273C337.688 110.086 337.969 110.805 338.344 111.43C338.719 112.039 339.18 112.516 339.727 112.859C340.289 113.203 340.945 113.375 341.695 113.375C342.836 113.375 343.758 113.133 344.461 112.648C345.164 112.164 345.672 111.477 345.984 110.586C346.297 109.695 346.43 108.648 346.383 107.445V105.594C346.414 104.562 346.344 103.656 346.172 102.875C346 102.078 345.727 101.414 345.352 100.883C344.992 100.352 344.508 99.9531 343.898 99.6875C343.305 99.4062 342.586 99.2656 341.742 99.2656C341.008 99.2656 340.359 99.4375 339.797 99.7812C339.234 100.125 338.766 100.609 338.391 101.234C338.016 101.844 337.727 102.57 337.523 103.414C337.336 104.242 337.242 105.148 337.242 106.133Z" fill="black"/>
<path d="M1134 0H1348C1356.28 0 1363 6.71573 1363 15V148C1363 156.284 1356.28 163 1348 163H1134V0Z" fill="#DA45FF"/>
<path d="M1210.62 43.625H1286.38V119.375H1210.62V43.625Z" fill="white" fill-opacity="0.01"/>
<path d="M1276.91 72.0312V105.172C1276.91 107.787 1274.79 109.906 1272.17 109.906H1224.83C1222.21 109.906 1220.09 107.787 1220.09 105.172V57.8281C1220.09 55.2134 1222.21 53.0938 1224.83 53.0938H1261.12" stroke="white" stroke-width="7.24" stroke-linecap="round" stroke-linejoin="round"/>
<path d="M1232.72 75.1875L1248.5 87.8125L1276.91 53.0938" stroke="white" stroke-width="7.24" stroke-linecap="round" stroke-linejoin="round"/>
</svg>
