<svg width="22" height="22" viewBox="0 0 22 22" fill="none" xmlns="http://www.w3.org/2000/svg">
<path d="M4.0216 21.7038C3.86366 21.8545 3.66982 21.9526 3.46284 21.9867C3.25585 22.0207 3.04431 21.9892 2.85306 21.896C2.6618 21.8027 2.49876 21.6514 2.38309 21.46C2.26741 21.2686 2.2039 21.0449 2.2 20.8153V18.1076C1.61652 18.1076 1.05695 17.8532 0.644365 17.4005C0.231785 16.9477 0 16.3336 0 15.6933V7.24304C0 6.60272 0.231785 5.98862 0.644365 5.53584C1.05695 5.08306 1.61652 4.82869 2.2 4.82869H14.3C14.8835 4.82869 15.4431 5.08306 15.8556 5.53584C16.2682 5.98862 16.5 6.60272 16.5 7.24304V15.6933C16.5 16.3336 16.2682 16.9477 15.8556 17.4005C15.4431 17.8532 14.8835 18.1076 14.3 18.1076H8.8033L4.0216 21.7038ZM4.95 17.97C5.05024 17.9694 5.14867 17.9407 5.236 17.8867L7.8265 15.9093C8.01086 15.7686 8.23004 15.6932 8.4546 15.6933H13.2C13.4917 15.6933 13.7715 15.5661 13.9778 15.3397C14.1841 15.1133 14.3 14.8062 14.3 14.4861V8.45021C14.3 8.13005 14.1841 7.823 13.9778 7.59661C13.7715 7.37022 13.4917 7.24304 13.2 7.24304H3.3C3.00826 7.24304 2.72847 7.37022 2.52218 7.59661C2.31589 7.823 2.2 8.13005 2.2 8.45021V14.4861C2.2 15.138 2.6719 15.6715 3.3 15.6933C3.751 15.7126 4.0777 15.7935 4.2284 15.9661C4.3692 16.1278 4.3769 16.4007 4.4 16.9197C4.4033 16.9958 4.4033 17.1334 4.4 17.3664C4.4 17.5265 4.45795 17.68 4.56109 17.7932C4.66424 17.9064 4.80413 17.97 4.95 17.97ZM17.6 12.091C17.5965 12.2399 17.5965 12.3888 17.6 12.5377V12.091ZM17.6 12.091C17.622 11.572 17.6308 11.2991 17.7716 11.1374C17.9223 10.9648 18.249 10.8839 18.7 10.8646C19.3281 10.8428 19.8 10.3093 19.8 9.65739V3.62152C19.8 3.30136 19.6841 2.99431 19.4778 2.76792C19.2715 2.54153 18.9917 2.41435 18.7 2.41435H8.8C8.50826 2.41435 8.22847 2.54153 8.02218 2.76792C7.81589 2.99431 7.7 3.30136 7.7 3.62152H5.5V2.41435C5.5 1.77402 5.73179 1.15992 6.14437 0.707146C6.55695 0.254368 7.11652 0 7.7 0L19.8 0C20.3835 0 20.9431 0.254368 21.3556 0.707146C21.7682 1.15992 22 1.77402 22 2.41435V10.8646C22 11.5049 21.7682 12.119 21.3556 12.5718C20.9431 13.0245 20.3835 13.2789 19.8 13.2789V15.9866C19.7961 16.2162 19.7326 16.4399 19.6169 16.6313C19.5012 16.8227 19.3382 16.974 19.1469 17.0673C18.9557 17.1605 18.7441 17.192 18.5372 17.158C18.3302 17.1239 18.1363 17.0258 17.9784 16.8751L17.6 16.5902V12.091Z" fill="#959296"/>
</svg>
