<svg width="25" height="24" viewBox="0 0 25 24" fill="none" xmlns="http://www.w3.org/2000/svg">
<path d="M22.1004 2.40002L23.1004 2.40003C23.1004 2.09614 22.9622 1.80874 22.7249 1.61897C22.4875 1.4292 22.1767 1.35766 21.8803 1.42454L22.1004 2.40002ZM10.0864 18.1224L11.0864 18.1227V18.1224H10.0864ZM9.34346 20.2397L10.127 20.861H10.127L9.34346 20.2397ZM7.42273 21.4817L7.1718 20.5136L7.42273 21.4817ZM3.38156 19.8605L4.24048 19.3484H4.24048L3.38156 19.8605ZM2.93117 17.6674L3.92204 17.8022H3.92204L2.93117 17.6674ZM3.9529 15.662L3.25739 14.9434L3.25739 14.9434L3.9529 15.662ZM6.0245 14.6731L5.8981 13.6811L6.0245 14.6731ZM8.28987 15.1093L7.80198 15.9822C7.82721 15.9963 7.85303 16.0093 7.87938 16.0212L8.28987 15.1093ZM9.17758 17.2353C9.40803 17.7372 10.0017 17.9573 10.5036 17.7268C11.0055 17.4964 11.2256 16.9027 10.9951 16.4008L9.17758 17.2353ZM22.1004 16.9446L23.1004 16.9449V16.9446L22.1004 16.9446ZM21.3575 19.0619L20.5739 18.4406L21.3575 19.0619ZM17.132 20.1572L16.7596 21.0854H16.7596L17.132 20.1572ZM14.9452 16.4896L13.9543 16.3547V16.3547L14.9452 16.4896ZM15.9669 14.4841L15.2714 13.7656L15.2714 13.7656L15.9669 14.4841ZM20.3039 13.9315L19.816 14.8044C19.8412 14.8185 19.8671 14.8315 19.8934 14.8434L20.3039 13.9315ZM21.8803 1.42454L10.6462 3.95921L11.0864 5.91017L22.3205 3.3755L21.8803 1.42454ZM9.08637 5.91017V18.1224H11.0864V5.91017H9.08637ZM9.08637 18.1222C9.08624 18.6594 8.90326 19.1854 8.5599 19.6184L10.127 20.861C10.7468 20.0793 11.0861 19.1169 11.0864 18.1227L9.08637 18.1222ZM8.5599 19.6184C8.21605 20.052 7.7294 20.3691 7.1718 20.5136L7.67366 22.4497C8.64403 22.1981 9.50767 21.6421 10.127 20.861L8.5599 19.6184ZM7.1718 20.5136C6.61393 20.6583 6.02221 20.6204 5.49026 20.407L4.74562 22.2632C5.67498 22.636 6.70355 22.7011 7.67366 22.4497L7.1718 20.5136ZM5.49026 20.407C4.95868 20.1937 4.52126 19.8193 4.24048 19.3484L2.52264 20.3726C3.03261 21.228 3.81588 21.8902 4.74562 22.2632L5.49026 20.407ZM4.24048 19.3484C3.96009 18.8781 3.84953 18.3351 3.92204 17.8022L1.94031 17.5325C1.80622 18.5179 2.01229 19.5166 2.52264 20.3726L4.24048 19.3484ZM3.92204 17.8022C3.99459 17.2691 4.24743 16.7686 4.64841 16.3805L3.25739 14.9434C2.5398 15.6381 2.07436 16.5474 1.94031 17.5325L3.92204 17.8022ZM4.64841 16.3805C5.04993 15.9918 5.57743 15.7381 6.1509 15.665L5.8981 13.6811C4.90329 13.8078 3.97444 14.2493 3.25739 14.9434L4.64841 16.3805ZM6.1509 15.665C6.72451 15.5919 7.30528 15.7046 7.80198 15.9822L8.77777 14.2364C7.90458 13.7484 6.89278 13.5543 5.8981 13.6811L6.1509 15.665ZM7.87938 16.0212C7.85032 16.0081 7.90831 16.0357 8.06567 16.1507C8.20019 16.2489 8.36413 16.3792 8.52917 16.5246C8.69524 16.6709 8.85077 16.8223 8.97457 16.9624C9.10761 17.1129 9.16396 17.2057 9.17758 17.2353L10.9951 16.4008C10.7515 15.8702 10.2279 15.3558 9.85129 15.024C9.64135 14.839 9.42997 14.6705 9.24548 14.5357C9.08383 14.4176 8.87913 14.2779 8.70037 14.1975L7.87938 16.0212ZM21.1004 2.40002L21.1003 15.64L23.1003 15.64L23.1004 2.40003L21.1004 2.40002ZM21.1003 15.6401L21.1004 16.9447L23.1004 16.9446L23.1003 15.6399L21.1003 15.6401ZM21.1004 16.9444C21.1003 17.4816 20.9173 18.0075 20.5739 18.4406L22.141 19.6832C22.7609 18.9015 23.1002 17.9391 23.1004 16.9449L21.1004 16.9444ZM20.5739 18.4406C20.2301 18.8742 19.7434 19.1913 19.1858 19.3358L19.6877 21.2718C20.6581 21.0203 21.5217 20.4643 22.141 19.6832L20.5739 18.4406ZM19.1858 19.3358C18.628 19.4804 18.0362 19.4425 17.5043 19.2291L16.7596 21.0854C17.689 21.4582 18.7176 21.5233 19.6877 21.2718L19.1858 19.3358ZM17.5043 19.2291C16.9727 19.0159 16.5353 18.6415 16.2545 18.1706L14.5367 19.1948C15.0466 20.0501 15.8299 20.7124 16.7596 21.0854L17.5043 19.2291ZM16.2545 18.1706C15.9741 17.7003 15.8636 17.1572 15.9361 16.6244L13.9543 16.3547C13.8202 17.3401 14.0263 18.3388 14.5367 19.1948L16.2545 18.1706ZM15.9361 16.6244C16.0086 16.0913 16.2615 15.5908 16.6624 15.2027L15.2714 13.7656C14.5538 14.4603 14.0884 15.3696 13.9543 16.3547L15.9361 16.6244ZM16.6624 15.2027C17.064 14.814 17.5915 14.5603 18.1649 14.4872L17.9121 12.5033C16.9173 12.63 15.9885 13.0715 15.2714 13.7656L16.6624 15.2027ZM18.1649 14.4872C18.7385 14.4141 19.3193 14.5268 19.816 14.8044L20.7918 13.0586C19.9186 12.5706 18.9068 12.3765 17.9121 12.5033L18.1649 14.4872ZM19.8934 14.8434C19.8643 14.8303 19.9223 14.8579 20.0796 14.9728C20.2141 15.0711 20.3781 15.2013 20.5431 15.3467C20.7091 15.493 20.8646 15.6444 20.9885 15.7844C21.1215 15.9349 21.1779 16.0277 21.1916 16.0575L23.009 15.2225C22.7652 14.692 22.2418 14.1778 21.8652 13.846C21.6553 13.6611 21.4439 13.4926 21.2594 13.3579C21.0978 13.2398 20.8931 13.1001 20.7144 13.0197L19.8934 14.8434ZM10.6462 3.95921C9.73414 4.16499 9.08637 4.9752 9.08637 5.91017H11.0864L10.6462 3.95921Z" fill="white"/>
</svg>
