<svg width="24" height="24" viewBox="0 0 24 24" fill="none" xmlns="http://www.w3.org/2000/svg">
<path d="M9.94204 19.6897C10.3229 20.0896 10.9559 20.105 11.3558 19.7241C11.7558 19.3433 11.7712 18.7103 11.3903 18.3103L9.94204 19.6897ZM3.99951 12L3.27537 11.3103C2.90756 11.6966 2.90756 12.3034 3.27537 12.6897L3.99951 12ZM11.3903 5.68966C11.7712 5.28972 11.7558 4.65675 11.3558 4.27586C10.9559 3.89498 10.3229 3.91041 9.94204 4.31034L11.3903 5.68966ZM19.9995 13C20.5518 13 20.9995 12.5523 20.9995 12C20.9995 11.4477 20.5518 11 19.9995 11L19.9995 13ZM11.3903 18.3103L4.72365 11.3103L3.27537 12.6897L9.94204 19.6897L11.3903 18.3103ZM4.72365 12.6897L11.3903 5.68966L9.94204 4.31034L3.27537 11.3103L4.72365 12.6897ZM3.99951 13L19.9995 13L19.9995 11L3.99951 11L3.99951 13Z" fill="#0FACFD"/>
</svg>
