<svg width="24" height="24" viewBox="0 0 24 24" fill="none" xmlns="http://www.w3.org/2000/svg">
<path d="M4 18.8925L5 18.8925L4 18.8925ZM4.58579 20.3827L5.31115 19.6944L5.31115 19.6944L4.58579 20.3827ZM6 21L6 20L6 20L6 21ZM18 21L18 22L18 22L18 21ZM19.4142 20.3827L18.6889 19.6944L18.6889 19.6944L19.4142 20.3827ZM20 18.8925L19 18.8925V18.8925L20 18.8925ZM5 15.2044C5 14.6521 4.55228 14.2044 4 14.2044C3.44772 14.2044 3 14.6521 3 15.2044L5 15.2044ZM21 15.2044C21 14.6521 20.5523 14.2044 20 14.2044C19.4477 14.2044 19 14.6521 19 15.2044H21ZM13.0011 3C13.0011 2.44772 12.5534 2 12.0011 2C11.4488 2 11.0011 2.44772 11.0011 3H13.0011ZM12.0011 14.9425L11.2946 15.6502C11.685 16.0399 12.3172 16.0399 12.7076 15.6502L12.0011 14.9425ZM17.279 11.087C17.6699 10.6969 17.6705 10.0637 17.2803 9.67283C16.8901 9.28195 16.257 9.28138 15.8661 9.67155L17.279 11.087ZM8.13615 9.67155C7.74528 9.28138 7.11211 9.28195 6.72194 9.67283C6.33177 10.0637 6.33234 10.6969 6.72322 11.087L8.13615 9.67155ZM3 18.8925C3 19.7003 3.30402 20.4848 3.86042 21.0711L5.31115 19.6944C5.1174 19.4902 5 19.2026 5 18.8925L3 18.8925ZM3.86042 21.0711C4.41851 21.6592 5.18696 22 6 22L6 20C5.75218 20 5.50321 19.8967 5.31115 19.6944L3.86042 21.0711ZM6 22H18V20H6V22ZM18 22C18.813 22 19.5815 21.6592 20.1396 21.0711L18.6889 19.6944C18.4968 19.8967 18.2478 20 18 20L18 22ZM20.1396 21.0711C20.696 20.4848 21 19.7003 21 18.8925L19 18.8925C19 19.2026 18.8826 19.4902 18.6889 19.6944L20.1396 21.0711ZM3 15.2044L3 18.8925L5 18.8925L5 15.2044L3 15.2044ZM21 18.8925V15.2044H19V18.8925H21ZM11.0011 3V14.9425H13.0011V3H11.0011ZM12.7076 15.6502L17.279 11.087L15.8661 9.67155L11.2946 14.2347L12.7076 15.6502ZM6.72322 11.087L11.2946 15.6502L12.7076 14.2347L8.13615 9.67155L6.72322 11.087Z" fill="#0FACFD"/>
</svg>
