<svg width="24" height="24" viewBox="0 0 24 24" fill="none" xmlns="http://www.w3.org/2000/svg">
<path d="M20.4388 19.001L19.7317 19.7081L19.7317 19.7081L20.4388 19.001ZM13.9188 12.481L14.6259 11.7739L14.6259 11.7739L13.9188 12.481ZM13.9188 11.5191L14.6259 12.2262L14.6259 12.2262L13.9188 11.5191ZM20.4388 4.99917L21.1459 5.70627L20.4388 4.99917ZM21.5999 18.5201L20.5999 18.5201L20.5999 18.5201L21.5999 18.5201ZM21.5999 5.48012L22.5999 5.48012L22.5999 5.48012L21.5999 5.48012ZM9.11909 19.001L8.41198 19.7081L8.41198 19.7081L9.11909 19.001ZM2.59912 12.481L3.30623 11.7739L3.30623 11.7739L2.59912 12.481ZM2.59912 11.5191L3.30623 12.2262L3.30623 12.2262L2.59912 11.5191ZM9.11909 4.99917L8.41198 4.29206L8.41198 4.29206L9.11909 4.99917ZM10.2802 18.5201L11.2802 18.5201L11.2802 18.5201L10.2802 18.5201ZM10.2802 5.48012L9.28022 5.48012L9.28022 5.48012L10.2802 5.48012ZM21.1459 18.2939L14.6259 11.7739L13.2117 13.1882L19.7317 19.7081L21.1459 18.2939ZM14.6259 12.2262L21.1459 5.70627L19.7317 4.29206L13.2117 10.812L14.6259 12.2262ZM22.5999 18.5201L22.5999 5.48012L20.5999 5.48012L20.5999 18.5201L22.5999 18.5201ZM21.1459 5.70627C20.9444 5.90775 20.5999 5.76506 20.5999 5.48012L22.5999 5.48012C22.5999 3.98324 20.7901 3.23362 19.7317 4.29206L21.1459 5.70627ZM14.6259 11.7739C14.7508 11.8988 14.7508 12.1013 14.6259 12.2262L13.2117 10.812C12.5556 11.4682 12.5556 12.532 13.2117 13.1882L14.6259 11.7739ZM19.7317 19.7081C20.7901 20.7666 22.5999 20.0169 22.5999 18.5201L20.5999 18.5201C20.5999 18.2351 20.9444 18.0924 21.1459 18.2939L19.7317 19.7081ZM9.8262 18.2939L3.30623 11.7739L1.89201 13.1881L8.41198 19.7081L9.8262 18.2939ZM3.30623 12.2262L9.8262 5.70627L8.41198 4.29206L1.89201 10.812L3.30623 12.2262ZM11.2802 18.5201L11.2802 5.48012L9.28022 5.48012L9.28021 18.5201L11.2802 18.5201ZM9.8262 5.70627C9.62472 5.90775 9.28022 5.76506 9.28022 5.48012L11.2802 5.48012C11.2802 3.98324 9.47043 3.23361 8.41198 4.29206L9.8262 5.70627ZM3.30623 11.7739C3.43113 11.8988 3.43113 12.1013 3.30623 12.2262L1.89201 10.812C1.23587 11.4682 1.23587 12.532 1.89201 13.1881L3.30623 11.7739ZM8.41198 19.7081C9.47043 20.7666 11.2802 20.0169 11.2802 18.5201L9.28021 18.5201C9.28021 18.2351 9.62472 18.0924 9.8262 18.2939L8.41198 19.7081Z" fill="#0FACFD"/>
</svg>
