<svg width="32" height="31" viewBox="0 0 32 31" fill="none" xmlns="http://www.w3.org/2000/svg">
<path d="M26.5351 15.6839C26.5351 21.2215 21.8109 25.7916 15.8809 25.7916V27.7916C22.8238 27.7916 28.5351 22.4155 28.5351 15.6839H26.5351ZM15.8809 25.7916C9.95084 25.7916 5.22656 21.2215 5.22656 15.6839H3.22656C3.22656 22.4155 8.93789 27.7916 15.8809 27.7916V25.7916ZM5.22656 15.6839C5.22656 10.1463 9.95084 5.57617 15.8809 5.57617V3.57617C8.93789 3.57617 3.22656 8.95225 3.22656 15.6839H5.22656ZM15.8809 5.57617C21.8109 5.57617 26.5351 10.1463 26.5351 15.6839H28.5351C28.5351 8.95225 22.8238 3.57617 15.8809 3.57617V5.57617ZM15.8809 25.7916C15.1009 25.7916 14.0742 25.0596 13.1843 23.121C12.3343 21.2693 11.7821 18.6408 11.7821 15.6839H9.7821C9.7821 18.8615 10.3713 21.7869 11.3667 23.9554C12.3222 26.037 13.8448 27.7916 15.8809 27.7916V25.7916ZM11.7821 15.6839C11.7821 12.7269 12.3343 10.0985 13.1843 8.24672C14.0742 6.30813 15.1009 5.57617 15.8809 5.57617V3.57617C13.8448 3.57617 12.3222 5.33076 11.3667 7.41237C10.3713 9.58081 9.7821 12.5062 9.7821 15.6839H11.7821ZM15.8809 27.7916C17.9169 27.7916 19.4395 26.037 20.395 23.9554C21.3904 21.7869 21.9796 18.8615 21.9796 15.6839H19.9796C19.9796 18.6408 19.4274 21.2693 18.5774 23.121C17.6875 25.0596 16.6608 25.7916 15.8809 25.7916V27.7916ZM21.9796 15.6839C21.9796 12.5062 21.3904 9.58081 20.395 7.41237C19.4395 5.33076 17.9169 3.57617 15.8809 3.57617V5.57617C16.6608 5.57617 17.6875 6.30813 18.5774 8.24672C19.4274 10.0985 19.9796 12.7269 19.9796 15.6839H21.9796ZM6.89081 21.9605C8.82508 20.9048 12.187 20.155 16.1092 20.155V18.155C12.0013 18.155 8.26859 18.9301 5.93267 20.205L6.89081 21.9605ZM16.1092 20.155C20.2092 20.155 23.6854 20.9739 25.5658 22.0964L26.5909 20.3791C24.2759 18.9971 20.3902 18.155 16.1092 18.155V20.155ZM5.93267 11.1628C8.26859 12.4377 12.0013 13.2127 16.1092 13.2127V11.2127C12.187 11.2127 8.82508 10.4629 6.89081 9.40724L5.93267 11.1628ZM16.1092 13.2127C20.3902 13.2127 24.2759 12.3706 26.5909 10.9887L25.5658 9.27138C23.6854 10.3939 20.2092 11.2127 16.1092 11.2127V13.2127Z" fill="white"/>
</svg>
