<svg width="24" height="24" viewBox="0 0 24 24" fill="none" xmlns="http://www.w3.org/2000/svg">
<path d="M12.0007 2.3999V1.3999V2.3999ZM5.38704 11.033C5.30749 10.4865 4.79997 10.1079 4.25344 10.1875C3.70691 10.267 3.32835 10.7745 3.40789 11.3211L5.38704 11.033ZM20.5912 11.3211C20.6708 10.7745 20.2922 10.267 19.7457 10.1875C19.1992 10.1079 18.6916 10.4865 18.6121 11.033L20.5912 11.3211ZM10.9996 21.5999C10.9996 22.1522 11.4473 22.5999 11.9996 22.5999C12.5518 22.5999 12.9996 22.1522 12.9996 21.5999H10.9996ZM12.0007 1.3999C10.8625 1.3999 9.77096 1.85203 8.96616 2.65683L10.3804 4.07105C10.8101 3.64132 11.3929 3.3999 12.0007 3.3999V1.3999ZM8.96616 2.65683C8.16136 3.46163 7.70923 4.55317 7.70923 5.69133H9.70923C9.70923 5.08361 9.95065 4.50077 10.3804 4.07105L8.96616 2.65683ZM7.70923 5.69133V10.0799H9.70923V5.69133H7.70923ZM7.70923 10.0799C7.70923 11.2181 8.16136 12.3096 8.96616 13.1144L10.3804 11.7002C9.95065 11.2705 9.70923 10.6876 9.70923 10.0799H7.70923ZM8.96616 13.1144C9.77096 13.9192 10.8625 14.3713 12.0007 14.3713V12.3713C11.3929 12.3713 10.8101 12.1299 10.3804 11.7002L8.96616 13.1144ZM12.0007 14.3713C13.1388 14.3713 14.2304 13.9192 15.0352 13.1144L13.6209 11.7002C13.1912 12.1299 12.6084 12.3713 12.0007 12.3713V14.3713ZM15.0352 13.1144C15.84 12.3096 16.2921 11.2181 16.2921 10.0799H14.2921C14.2921 10.6876 14.0507 11.2705 13.6209 11.7002L15.0352 13.1144ZM16.2921 10.0799V5.69133H14.2921V10.0799H16.2921ZM16.2921 5.69133C16.2921 4.55317 15.84 3.46163 15.0352 2.65683L13.6209 4.07105C14.0507 4.50077 14.2921 5.08361 14.2921 5.69133H16.2921ZM15.0352 2.65683C14.2304 1.85203 13.1388 1.3999 12.0007 1.3999V3.3999C12.6084 3.3999 13.1912 3.64132 13.6209 4.07105L15.0352 2.65683ZM3.40789 11.3211C3.70832 13.3853 4.74192 15.2724 6.3196 16.6371L7.62802 15.1245C6.41377 14.0742 5.61826 12.6218 5.38704 11.033L3.40789 11.3211ZM6.3196 16.6371C7.89728 18.0018 9.91355 18.7528 11.9996 18.7528L11.9996 16.7528C10.3941 16.7528 8.84227 16.1748 7.62802 15.1245L6.3196 16.6371ZM11.9996 18.7528C14.0856 18.7528 16.1019 18.0018 17.6795 16.6371L16.3711 15.1245C15.1569 16.1748 13.605 16.7528 11.9996 16.7528L11.9996 18.7528ZM17.6795 16.6371C19.2572 15.2724 20.2908 13.3853 20.5912 11.3211L18.6121 11.033C18.3809 12.6218 17.5854 14.0742 16.3711 15.1245L17.6795 16.6371ZM10.9996 17.7528V21.5999H12.9996V17.7528H10.9996Z" fill="#0FACFD"/>
</svg>
