<svg width="24" height="24" viewBox="0 0 24 24" fill="none" xmlns="http://www.w3.org/2000/svg">
<path d="M5.09066 22.2882C5.47083 22.6889 6.10377 22.7054 6.50439 22.3253C6.90501 21.9451 6.9216 21.3122 6.54144 20.9116L5.09066 22.2882ZM2.3999 17.9999L1.67452 17.3116C1.30836 17.6974 1.30836 18.3024 1.67452 18.6882L2.3999 17.9999ZM6.54144 15.0882C6.9216 14.6876 6.90501 14.0547 6.50439 13.6745C6.10377 13.2944 5.47083 13.3109 5.09066 13.7116L6.54144 15.0882ZM22.5999 11.9999C22.5999 11.4476 22.1522 10.9999 21.5999 10.9999C21.0476 10.9999 20.5999 11.4476 20.5999 11.9999H22.5999ZM18.9091 1.71156C18.529 1.31094 17.896 1.29436 17.4954 1.67452C17.0948 2.05468 17.0782 2.68762 17.4584 3.08824L18.9091 1.71156ZM21.5999 5.9999L22.3253 6.68824C22.6914 6.30239 22.6914 5.69742 22.3253 5.31156L21.5999 5.9999ZM17.4584 8.91156C17.0782 9.31218 17.0948 9.94513 17.4954 10.3253C17.896 10.7054 18.529 10.6889 18.9091 10.2882L17.4584 8.91156ZM4.7999 5.9999L4.7999 6.9999L4.7999 5.9999ZM2.3999 8.3999L1.3999 8.3999L2.3999 8.3999ZM1.3999 11.9999C1.3999 12.5522 1.84762 12.9999 2.3999 12.9999C2.95219 12.9999 3.3999 12.5522 3.3999 11.9999L1.3999 11.9999ZM6.54144 20.9116L3.12529 17.3116L1.67452 18.6882L5.09066 22.2882L6.54144 20.9116ZM3.12529 18.6882L6.54144 15.0882L5.09066 13.7116L1.67452 17.3116L3.12529 18.6882ZM2.3999 18.9999H19.1999V16.9999H2.3999V18.9999ZM22.5999 15.5999V11.9999H20.5999V15.5999H22.5999ZM19.1999 18.9999C21.0777 18.9999 22.5999 17.4777 22.5999 15.5999H20.5999C20.5999 16.3731 19.9731 16.9999 19.1999 16.9999V18.9999ZM17.4584 3.08824L20.8745 6.68824L22.3253 5.31156L18.9091 1.71156L17.4584 3.08824ZM20.8745 5.31156L17.4584 8.91156L18.9091 10.2882L22.3253 6.68824L20.8745 5.31156ZM21.5999 4.9999L4.7999 4.9999L4.7999 6.9999L21.5999 6.9999L21.5999 4.9999ZM1.3999 8.3999L1.3999 11.9999L3.3999 11.9999L3.3999 8.3999L1.3999 8.3999ZM4.7999 4.9999C2.92213 4.9999 1.3999 6.52213 1.3999 8.3999L3.3999 8.3999C3.3999 7.6267 4.0267 6.9999 4.7999 6.9999L4.7999 4.9999Z" fill="#0FACFD"/>
</svg>
