<svg width="33" height="32" viewBox="0 0 33 32" fill="none" xmlns="http://www.w3.org/2000/svg">
<path d="M27.8485 9.27057L27.1585 9.99445L27.1585 9.99445L27.8485 9.27057ZM23.2859 4.92196L22.5959 5.64584L22.5959 5.64584L23.2859 4.92196ZM21.4397 4.19312L21.4397 3.19312H21.4397V4.19312ZM28.6132 11.0301L29.6132 11.0301L29.6132 11.0301L28.6132 11.0301ZM8.57563 25.9667C8.57563 26.519 9.02334 26.9667 9.57563 26.9667C10.1279 26.9667 10.5756 26.519 10.5756 25.9667H8.57563ZM22.2827 26.6925C22.2827 27.2448 22.7304 27.6925 23.2827 27.6925C23.8349 27.6925 24.2827 27.2448 24.2827 26.6925H22.2827ZM24.2827 5.64469C24.2827 5.09241 23.8349 4.64469 23.2827 4.64469C22.7304 4.64469 22.2827 5.09241 22.2827 5.64469H24.2827ZM23.2827 8.54784L24.2827 8.54784V8.54784H23.2827ZM21.7597 9.99942L21.7597 10.9994L21.7597 9.99942ZM11.0986 9.99942L11.0986 8.99942L11.0986 9.99942ZM9.57563 8.54784L10.5756 8.54784L9.57563 8.54784ZM10.5756 4.19312C10.5756 3.64083 10.1279 3.19312 9.57563 3.19312C9.02335 3.19312 8.57563 3.64083 8.57563 4.19312L10.5756 4.19312ZM28.5384 8.54669L23.9758 4.19808L22.5959 5.64584L27.1585 9.99445L28.5384 8.54669ZM23.9758 4.19809C23.2954 3.54955 22.3823 3.19312 21.4397 3.19312L21.4397 5.19312C21.882 5.19312 22.2971 5.36104 22.5959 5.64584L23.9758 4.19809ZM21.4397 3.19312H6.85598V5.19312H21.4397V3.19312ZM6.85598 3.19312C4.90755 3.19312 3.24512 4.71019 3.24512 6.68153H5.24512C5.24512 5.90421 5.9205 5.19312 6.85598 5.19312V3.19312ZM3.24512 6.68153V24.9299H5.24512V6.68153H3.24512ZM3.24512 24.9299C3.24512 26.9012 4.90755 28.4183 6.85598 28.4183V26.4183C5.9205 26.4183 5.24512 25.7072 5.24512 24.9299H3.24512ZM6.85598 28.4183H26.0023V26.4183H6.85598V28.4183ZM26.0023 28.4183C27.9507 28.4183 29.6132 26.9012 29.6132 24.9299H27.6132C27.6132 25.7072 26.9378 26.4183 26.0023 26.4183V28.4183ZM29.6132 24.9299V11.0301H27.6132V24.9299H29.6132ZM29.6132 11.0301C29.6132 10.089 29.2205 9.19678 28.5384 8.54669L27.1585 9.99445C27.4557 10.2777 27.6132 10.6513 27.6132 11.0301L29.6132 11.0301ZM10.5756 25.9667V19.4347H8.57563V25.9667H10.5756ZM11.0986 18.9831H21.7597V16.9831H11.0986V18.9831ZM22.2827 19.4347V26.6925H24.2827V19.4347H22.2827ZM21.7597 18.9831C22.0943 18.9831 22.2827 19.23 22.2827 19.4347H24.2827C24.2827 18.036 23.1073 16.9831 21.7597 16.9831V18.9831ZM10.5756 19.4347C10.5756 19.23 10.764 18.9831 11.0986 18.9831V16.9831C9.75103 16.9831 8.57563 18.036 8.57563 19.4347H10.5756ZM22.2827 5.64469V8.54784H24.2827V5.64469H22.2827ZM21.7597 8.99942L11.0986 8.99942L11.0986 10.9994L21.7597 10.9994L21.7597 8.99942ZM10.5756 8.54784L10.5756 4.19312L8.57563 4.19312L8.57563 8.54784L10.5756 8.54784ZM11.0986 8.99942C10.764 8.99942 10.5756 8.75252 10.5756 8.54784L8.57563 8.54784C8.57563 9.94653 9.75103 10.9994 11.0986 10.9994L11.0986 8.99942ZM22.2827 8.54784C22.2827 8.75252 22.0943 8.99942 21.7597 8.99942L21.7597 10.9994C23.1073 10.9994 24.2827 9.94653 24.2827 8.54784L22.2827 8.54784Z" fill="#0FACFD"/>
</svg>
