<svg width="24" height="24" viewBox="0 0 24 24" fill="none" xmlns="http://www.w3.org/2000/svg">
<path d="M13.6763 4.31627L14.3836 5.02319L14.7809 4.62567L14.6479 4.0796L13.6763 4.31627ZM10.3237 4.31627L9.35211 4.0796L9.35176 4.08104L10.3237 4.31627ZM7.75187 5.38279L7.23153 6.23675L7.23165 6.23682L7.75187 5.38279ZM5.38254 7.75207L4.52859 8.27242L4.52865 8.27252L5.38254 7.75207ZM4.31713 10.325L4.55307 11.2968L4.55331 11.2967L4.31713 10.325ZM4.31713 13.6753L4.55258 12.7034L4.55248 12.7034L4.31713 13.6753ZM5.38254 16.2482L4.52895 15.7273L4.52859 15.7279L5.38254 16.2482ZM7.75187 18.6175L8.2722 19.4715L8.27279 19.4711L7.75187 18.6175ZM10.3248 19.6829L9.35294 19.9183L9.35306 19.9188L10.3248 19.6829ZM13.6752 19.6829L12.7035 19.4466L12.7033 19.4475L13.6752 19.6829ZM16.2481 18.6175L16.7685 17.7635L16.7683 17.7634L16.2481 18.6175ZM18.6175 16.2482L17.7634 16.7684L17.7635 16.7686L18.6175 16.2482ZM19.6829 13.6753L19.4469 12.7035L19.4465 12.7036L19.6829 13.6753ZM19.6829 10.325L19.4474 11.2969L19.4475 11.2969L19.6829 10.325ZM18.6175 7.75207L19.4711 8.27301L19.4714 8.27242L18.6175 7.75207ZM16.2481 5.38279L15.7278 4.52883L15.7272 4.52919L16.2481 5.38279ZM13.6752 4.3174L12.9679 3.61048L12.5712 4.00742L12.7033 4.55285L13.6752 4.3174ZM14.6479 4.0796C13.9725 1.3068 10.0275 1.3068 9.35211 4.0796L11.2953 4.55294C11.4749 3.81569 12.5251 3.81569 12.7047 4.55294L14.6479 4.0796ZM9.35176 4.08104C9.32497 4.19174 9.27241 4.29456 9.19837 4.38113L10.7183 5.68111C10.9969 5.35528 11.1948 4.96824 11.2956 4.5515L9.35176 4.08104ZM9.19837 4.38113C9.12433 4.46769 9.0309 4.53555 8.92568 4.57918L9.6918 6.42663C10.0879 6.26238 10.4396 6.00695 10.7183 5.68111L9.19837 4.38113ZM8.92568 4.57918C8.82046 4.62282 8.70642 4.64099 8.59285 4.63223L8.439 6.6263C8.86649 6.65929 9.29574 6.59087 9.6918 6.42663L8.92568 4.57918ZM8.59285 4.63223C8.47927 4.62347 8.36937 4.58801 8.27209 4.52876L7.23165 6.23682C7.59783 6.45987 8.0115 6.59332 8.439 6.6263L8.59285 4.63223ZM8.2722 4.52883C5.83345 3.04284 3.04249 5.83355 4.52859 8.27242L6.2365 7.23173C5.84154 6.58355 6.58319 5.8417 7.23153 6.23675L8.2722 4.52883ZM4.52865 8.27252C4.78353 8.69071 4.55735 9.23749 4.08096 9.35328L4.55331 11.2967C6.34499 10.8612 7.19659 8.80697 6.23644 7.23163L4.52865 8.27252ZM4.0812 9.35322C1.30761 10.0266 1.30472 13.9747 4.08179 14.6472L4.55248 12.7034C3.81719 12.5253 3.8143 11.4761 4.55307 11.2968L4.0812 9.35322ZM4.08169 14.6472C4.19243 14.674 4.29528 14.7266 4.38184 14.8007L5.68238 13.2813C5.35653 13.0024 4.96943 12.8044 4.55258 12.7034L4.08169 14.6472ZM4.38184 14.8007C4.4684 14.8748 4.53624 14.9683 4.57983 15.0736L6.42767 14.3084C6.26358 13.9121 6.00822 13.5602 5.68238 13.2813L4.38184 14.8007ZM4.57983 15.0736C4.62342 15.1788 4.64154 15.2929 4.63269 15.4065L6.62666 15.5617C6.65995 15.1341 6.59177 14.7047 6.42767 14.3084L4.57983 15.0736ZM4.63269 15.4065C4.62385 15.5201 4.58831 15.63 4.52895 15.7273L6.23614 16.7691C6.45957 16.403 6.59338 15.9893 6.62666 15.5617L4.63269 15.4065ZM4.52859 15.7279C3.04249 18.1667 5.83344 20.9574 8.2722 19.4715L7.23153 17.7635C6.58319 18.1586 5.84154 17.4167 6.2365 16.7686L4.52859 15.7279ZM8.27279 19.4711C8.37006 19.4117 8.47997 19.3762 8.59357 19.3673L8.43837 17.3734C8.01076 17.4067 7.59705 17.5405 7.23094 17.7639L8.27279 19.4711ZM8.59357 19.3673C8.70718 19.3585 8.82127 19.3766 8.92655 19.4202L9.69169 17.5724C9.29541 17.4083 8.86599 17.3401 8.43837 17.3734L8.59357 19.3673ZM8.92655 19.4202C9.03182 19.4638 9.12532 19.5316 9.19941 19.6182L10.7188 18.3176C10.4399 17.9918 10.088 17.7364 9.69169 17.5724L8.92655 19.4202ZM9.19941 19.6182C9.27351 19.7048 9.32611 19.8076 9.35294 19.9183L11.2967 19.4474C11.1957 19.0306 10.9977 18.6435 10.7188 18.3176L9.19941 19.6182ZM9.35306 19.9188C10.0265 22.6924 13.9746 22.6953 14.6471 19.9182L12.7033 19.4475C12.5252 20.1828 11.476 20.1857 11.2966 19.4469L9.35306 19.9188ZM14.6469 19.9192C14.6738 19.8084 14.7265 19.7056 14.8007 19.619L13.2819 18.3177C13.003 18.6433 12.8048 19.03 12.7035 19.4466L14.6469 19.9192ZM14.8007 19.619C14.8749 19.5324 14.9684 19.4646 15.0738 19.4209L14.3086 17.5731C13.9125 17.7371 13.5608 17.9922 13.2819 18.3177L14.8007 19.619ZM15.0738 19.4209C15.1791 19.3773 15.2932 19.3592 15.4069 19.368L15.5612 17.3739C15.1338 17.3408 14.7047 17.4091 14.3086 17.5731L15.0738 19.4209ZM15.4069 19.368C15.5206 19.3768 15.6306 19.4123 15.728 19.4716L16.7683 17.7634C16.4022 17.5404 15.9886 17.407 15.5612 17.3739L15.4069 19.368ZM15.7278 19.4715C18.1666 20.9574 20.9575 18.1667 19.4714 15.7279L17.7635 16.7686C18.1585 17.4167 17.4168 18.1586 16.7685 17.7635L15.7278 19.4715ZM19.4715 15.728C19.4122 15.6307 19.3767 15.5207 19.3679 15.407L17.3739 15.5613C17.407 15.9887 17.5404 16.4023 17.7634 16.7684L19.4715 15.728ZM19.3679 15.407C19.3591 15.2933 19.3773 15.1792 19.4209 15.0739L17.573 14.3087C17.409 14.7048 17.3408 15.1339 17.3739 15.5613L19.3679 15.407ZM19.4209 15.0739C19.4645 14.9685 19.5324 14.875 19.6189 14.8008L18.3177 13.282C17.9922 13.5609 17.7371 13.9126 17.573 14.3087L19.4209 15.0739ZM19.6189 14.8008C19.7055 14.7266 19.8084 14.6739 19.9192 14.647L19.4465 12.7036C19.03 12.8049 18.6433 13.0031 18.3177 13.282L19.6189 14.8008ZM19.9188 14.6471C22.6924 13.9737 22.6953 10.0255 19.9182 9.35308L19.4475 11.2969C20.1828 11.475 20.1857 12.5242 19.4469 12.7035L19.9188 14.6471ZM19.9183 9.3531C19.8076 9.32627 19.7047 9.27367 19.6182 9.19957L18.3176 10.719C18.6435 10.9979 19.0306 11.1959 19.4474 11.2969L19.9183 9.3531ZM19.6182 9.19957C19.5316 9.12548 19.4638 9.03199 19.4202 8.92672L17.5723 9.69188C17.7364 10.0882 17.9918 10.4401 18.3176 10.719L19.6182 9.19957ZM19.4202 8.92672C19.3766 8.82145 19.3585 8.70737 19.3673 8.59377L17.3733 8.43857C17.3401 8.86618 17.4082 9.29561 17.5723 9.69188L19.4202 8.92672ZM19.3673 8.59377C19.3761 8.48018 19.4117 8.37027 19.4711 8.27301L17.7639 7.23113C17.5404 7.59725 17.4066 8.01095 17.3733 8.43857L19.3673 8.59377ZM19.4714 8.27242C20.9575 5.83355 18.1666 3.04284 15.7278 4.52883L16.7685 6.23675C17.4168 5.8417 18.1585 6.58355 17.7635 7.23173L19.4714 8.27242ZM15.7272 4.52919C15.6299 4.58854 15.52 4.62409 15.4064 4.63293L15.5616 6.6269C15.9892 6.59362 16.4029 6.45982 16.7691 6.23639L15.7272 4.52919ZM15.4064 4.63293C15.2928 4.64178 15.1787 4.62366 15.0735 4.58007L14.3083 6.42792C14.7046 6.59201 15.134 6.66019 15.5616 6.6269L15.4064 4.63293ZM15.0735 4.58007C14.9682 4.53648 14.8747 4.46864 14.8006 4.38208L13.2812 5.68264C13.5601 6.00848 13.912 6.26383 14.3083 6.42792L15.0735 4.58007ZM14.8006 4.38208C14.7265 4.29551 14.6739 4.19268 14.6471 4.08194L12.7033 4.55285C12.8043 4.9697 13.0023 5.3568 13.2812 5.68264L14.8006 4.38208ZM14.3825 5.02431L14.3836 5.02319L12.969 3.60935L12.9679 3.61048L14.3825 5.02431ZM13 12C13 12.5523 12.5523 13 12 13V15C13.6569 15 15 13.6569 15 12H13ZM12 13C11.4477 13 11 12.5523 11 12H9C9 13.6569 10.3431 15 12 15V13ZM11 12C11 11.4477 11.4477 11 12 11V9C10.3431 9 9 10.3431 9 12H11ZM12 11C12.5523 11 13 11.4477 13 12H15C15 10.3431 13.6569 9 12 9V11Z" fill="#0FACFD"/>
</svg>
