<svg width="24" height="24" viewBox="0 0 24 24" fill="none" xmlns="http://www.w3.org/2000/svg">
<path d="M12 6H13C13 5.61663 12.7808 5.26701 12.4358 5.09995C12.0907 4.93288 11.6805 4.97779 11.3798 5.21555L12 6ZM7.58775 9.4884V10.4884C7.81285 10.4884 8.03137 10.4125 8.20795 10.2729L7.58775 9.4884ZM3 9.4884V8.4884C2.44772 8.4884 2 8.93612 2 9.4884H3ZM3 14.5111H2C2 14.7764 2.10539 15.0308 2.29299 15.2183C2.48059 15.4059 2.73501 15.5112 3.00027 15.5111L3 14.5111ZM7.58775 14.5099L8.20814 13.7256C8.03145 13.5858 7.81275 13.5098 7.58748 13.5099L7.58775 14.5099ZM12 18L11.3796 18.7843C11.6803 19.0222 12.0906 19.0671 12.4357 18.9001C12.7808 18.7331 13 18.3834 13 18H12ZM20.5286 7.54646C20.2342 7.07915 19.6168 6.93892 19.1495 7.23326C18.6821 7.5276 18.5419 8.14504 18.8363 8.61236L20.5286 7.54646ZM19.092 16.4484C18.8416 16.9406 19.0376 17.5427 19.5299 17.7931C20.0221 18.0435 20.6242 17.8475 20.8746 17.3552L19.092 16.4484ZM17.1058 9.07398C16.7467 8.65432 16.1155 8.60517 15.6958 8.9642C15.2762 9.32324 15.227 9.95449 15.5861 10.3742L17.1058 9.07398ZM15.7772 14.638C15.4632 15.0923 15.577 15.7152 16.0314 16.0292C16.4858 16.3431 17.1086 16.2293 17.4226 15.7749L15.7772 14.638ZM11.3798 5.21555L6.96755 8.70396L8.20795 10.2729L12.6202 6.78445L11.3798 5.21555ZM7.58775 8.4884H3V10.4884H7.58775V8.4884ZM2 9.4884V14.5111H4V9.4884H2ZM3.00027 15.5111L7.58802 15.5099L7.58748 13.5099L2.99973 13.5111L3.00027 15.5111ZM6.96736 15.2941L11.3796 18.7843L12.6204 17.2157L8.20814 13.7256L6.96736 15.2941ZM13 18V6H11V18H13ZM18.8363 8.61236C20.2302 10.8254 20.4407 13.7972 19.092 16.4484L20.8746 17.3552C22.5389 14.0837 22.3021 10.3623 20.5286 7.54646L18.8363 8.61236ZM15.5861 10.3742C16.6355 11.6008 16.7842 13.1807 15.7772 14.638L17.4226 15.7749C18.9588 13.5517 18.73 10.9724 17.1058 9.07398L15.5861 10.3742Z" fill="#0FACFD"/>
</svg>
